<svg width="88" height="88" viewBox="0 0 88 88" fill="none" xmlns="http://www.w3.org/2000/svg">
<path d="M2 44C2 20.9046 20.9046 2 44 2C67.0954 2 86 20.9046 86 44C86 67.0954 67.0954 86 44 86C20.9046 86 2 67.0954 2 44Z" stroke="#D10244" stroke-width="4"/>
<path fill-rule="evenodd" clip-rule="evenodd" d="M43.5 41.0339L55.8744 28.7009C56.6554 27.9225 57.9218 27.9225 58.7028 28.7009C59.4839 29.4793 59.4839 30.7414 58.7028 31.5199L46.3284 43.8529L58.7028 56.1858C59.4838 56.9643 59.4838 58.2264 58.7028 59.0048C57.9218 59.7832 56.6554 59.7832 55.8744 59.0048L43.5 46.6718L31.1257 59.0048C30.3446 59.7832 29.0783 59.7832 28.2972 59.0048C27.5162 58.2264 27.5162 56.9643 28.2972 56.1858L40.6716 43.8529L28.2972 31.5199C27.5162 30.7414 27.5162 29.4793 28.2972 28.7009C29.0783 27.9225 30.3446 27.9225 31.1256 28.7009L43.5 41.0339Z" fill="#D10244"/>
</svg>
