<svg xmlns="http://www.w3.org/2000/svg" height="350" width="1000" viewBox="-79.10475 -42.65325 685.5745 255.9195"><path d="M74.398 38.777H1.333v23.266h47.621a5.334 5.334 0 015.333 5.333v41.2H44.11a5.333 5.333 0 01-5.333-5.334V73.676h-20.11C8.357 73.676 0 82.033 0 92.343v20.832c0 10.309 8.357 18.667 18.667 18.667h74.397V57.443c0-10.309-8.357-18.666-18.666-18.666m88.462 69.798h-10.176a5.333 5.333 0 01-5.334-5.333V38.777h-20.108c-10.31 0-18.667 8.357-18.667 18.666v55.732c0 10.309 8.358 18.667 18.667 18.667h74.397V0h-38.777l-.001 108.575m108.576 0h-10.178a5.333 5.333 0 01-5.333-5.333V38.777H217.15v74.398c0 10.309 8.357 18.667 18.667 18.667h35.621v11.632h-52.955v27.139h73.066c10.309 0 18.666-8.357 18.666-18.667V38.776h-38.778v69.8m128.686-69.799h-74.397v74.398c0 10.309 8.357 18.667 18.666 18.667h73.064v-23.267h-47.62a5.333 5.333 0 01-5.334-5.333V62.043h10.177a5.333 5.333 0 015.333 5.334v29.565h20.111c10.31 0 18.667-8.357 18.667-18.666V57.443c0-10.309-8.358-18.666-18.667-18.666m108.576 0H434.3v93.065h38.777v-69.8h10.178c2.933 0 5.333 2.4 5.333 5.334v64.466h38.777V57.443c0-10.309-8.357-18.666-18.666-18.666" fill="#0abf52"/></svg>
