<svg width="173" height="66" viewBox="0 0 173 66" fill="none" xmlns="http://www.w3.org/2000/svg">
<path d="M23.4316 5.14535C23.6067 5.21512 23.6943 5.30232 23.6943 5.40698C23.6943 5.51163 23.6943 5.59884 23.6943 5.6686C23.6943 5.87791 23.6417 5.98256 23.5366 5.98256C23.3265 5.98256 23.2214 6.03488 23.2214 6.13953C23.2564 6.24419 23.2389 6.29651 23.1689 6.29651H23.1163C22.9762 6.29651 22.8887 6.26163 22.8537 6.19186C22.8537 6.26163 22.8011 6.29651 22.696 6.29651C22.7661 6.36628 22.8537 6.40116 22.9587 6.40116C23.0638 6.36628 23.1339 6.38372 23.1689 6.45349H23.0113C22.9762 6.48837 22.9587 6.50582 22.9587 6.50582C22.8537 6.47093 22.8011 6.45349 22.8011 6.45349C22.8362 6.45349 22.8011 6.45349 22.696 6.45349C22.7661 6.48837 22.8011 6.52326 22.8011 6.55814C22.8362 6.59302 22.8887 6.61047 22.9587 6.61047H23.1163C23.1514 6.61047 23.0638 6.64535 22.8537 6.71512C22.6435 6.75 22.5735 6.76744 22.6435 6.76744C22.7836 6.73256 22.8011 6.75 22.696 6.81977C22.626 6.88953 22.5384 6.92442 22.4334 6.92442C22.4334 7.06395 22.1357 7.1686 21.5402 7.23837C20.9448 7.30814 20.2793 7.36046 19.5438 7.39535C18.8083 7.39535 18.0903 7.39535 17.3898 7.39535C16.7243 7.36046 16.304 7.32558 16.1289 7.2907C15.9188 9.13953 15.7261 10.9709 15.551 12.7849C15.3759 14.564 15.2008 16.343 15.0256 18.1221C14.8505 19.9012 14.6579 21.7151 14.4477 23.564C14.2726 25.3779 14.0624 27.2442 13.8173 29.1628C13.5021 30.8372 13.2919 32.5465 13.1868 34.2907C13.1168 36.0349 12.8716 37.7965 12.4513 39.5756V39.5233C12.4163 39.5581 12.3988 39.6453 12.3988 39.7849C12.3637 39.7151 12.3462 39.6279 12.3462 39.5233C12.3813 39.3837 12.3813 39.2791 12.3462 39.2093V39.314C12.2762 39.2791 12.2412 39.2616 12.2412 39.2616C12.2762 39.2267 12.2587 39.1744 12.1886 39.1047V39.2616C12.1886 39.2267 12.1711 39.1919 12.1361 39.157C12.1361 39.1221 12.1361 39.0698 12.1361 39C12.1011 38.9302 12.0835 38.8779 12.0835 38.843C12.0485 38.8081 12.031 38.7209 12.031 38.5814C11.961 38.7209 11.9434 38.8605 11.9785 39C12.0485 39.1047 12.0485 39.1919 11.9785 39.2616C11.9084 39.2267 11.8909 39.1919 11.9259 39.157C11.961 39.1221 11.9434 39.0698 11.8734 39V39.2616C11.8384 39.2267 11.8033 39.1395 11.7683 39C11.7333 38.8605 11.6808 38.8081 11.6107 38.843H10.7701C10.56 38.843 10.3673 38.8605 10.1922 38.8954C10.0171 38.8954 9.8945 38.8779 9.82445 38.843C9.92952 38.9477 9.98206 39.0523 9.98206 39.157C9.98206 39.2267 9.98206 39.2965 9.98206 39.3663C9.91201 39.3314 9.8945 39.3314 9.92952 39.3663C9.96455 39.3663 9.94704 39.3663 9.87699 39.3663V39.157C9.84196 39.2267 9.82445 39.2791 9.82445 39.314C9.85947 39.314 9.85947 39.3314 9.82445 39.3663V39.2616H9.71937V39.2093C9.71937 39.2093 9.66684 39.157 9.56176 39.0523H9.50923L9.56176 39.1047C9.56176 39.1395 9.57928 39.157 9.6143 39.157L9.56176 39.2093V39.157H9.03639C8.89629 39.157 8.79122 39.1395 8.72117 39.1047C8.68614 39.1047 8.66863 39.1221 8.66863 39.157C8.66863 39.157 8.68614 39.157 8.72117 39.157L8.66863 39.1047C8.6336 39.1047 8.65112 39.157 8.72117 39.2616C8.65112 39.2267 8.58107 39.1919 8.51102 39.157C8.44097 39.0872 8.38843 38.9826 8.35341 38.843C8.31838 38.9826 8.21331 39.0523 8.03818 39.0523C7.86306 39.0523 7.65291 39.0523 7.40774 39.0523C7.19759 39.0174 6.98744 38.9826 6.77729 38.9477C6.56714 38.9128 6.40953 38.9128 6.30446 38.9477C6.19939 38.9826 6.18187 39.0523 6.25192 39.157C6.32197 39.2267 6.32197 39.2965 6.25192 39.3663V39.314L6.19939 39.2616C6.19939 39.3663 6.19939 39.4186 6.19939 39.4186C6.19939 39.3837 6.18187 39.3314 6.14685 39.2616C6.11182 39.157 6.0768 39.0698 6.04177 39C5.9367 39.0698 5.91919 39.157 5.98923 39.2616C6.09431 39.3314 6.14685 39.3837 6.14685 39.4186C6.04177 39.4186 5.95421 39.3663 5.88416 39.2616C5.84914 39.157 5.81411 39.0698 5.77909 39C5.70904 38.8256 5.60396 38.5988 5.46387 38.3198C5.35879 38.0058 5.32376 37.7442 5.35879 37.5349C5.42884 37.6395 5.46387 37.6395 5.46387 37.5349C5.49889 37.4302 5.5164 37.343 5.5164 37.2733L5.41133 37.4302L5.35879 37.3256C5.35879 37.2558 5.34128 37.1686 5.30625 37.064C5.30625 36.9244 5.32376 36.8372 5.35879 36.8023V36.6453C5.32376 36.436 5.30625 36.2965 5.30625 36.2267C5.30625 36.157 5.32376 36.0174 5.35879 35.8081C5.42884 35.1454 5.46387 34.5174 5.46387 33.9244C5.46387 33.2965 5.53391 32.6163 5.67401 31.8837C5.84914 31.7093 5.9367 31.3953 5.9367 30.9419C5.86665 31.0116 5.83162 31.1163 5.83162 31.2558C5.83162 31.3605 5.7966 31.4477 5.72655 31.5174C5.72655 31.5872 5.70904 31.6221 5.67401 31.6221C5.63899 31.6221 5.62148 31.5872 5.62148 31.5174C5.6565 31.5174 5.67401 31.4826 5.67401 31.4128C5.67401 31.4128 5.67401 31.3779 5.67401 31.3081C5.67401 31.2733 5.69153 31.2558 5.72655 31.2558V30.6802C5.72655 30.6105 5.74406 30.5407 5.77909 30.4709C5.84914 30.3663 5.88416 30.2965 5.88416 30.2616C5.84914 30.1919 5.84914 30.1047 5.88416 30V29.8953C5.91919 29.8605 5.95421 29.7384 5.98923 29.5291C6.02426 29.2849 6.04177 29.0233 6.04177 28.7442C6.0768 28.4302 6.11182 28.1337 6.14685 27.8547C6.18187 27.5756 6.19939 27.3837 6.19939 27.2791C6.30446 27.2442 6.37451 27.1221 6.40953 26.9128C6.47958 26.6686 6.51461 26.4244 6.51461 26.1802C6.54963 25.9012 6.56714 25.657 6.56714 25.4477C6.56714 25.2035 6.58466 25.0814 6.61968 25.0814C6.61968 24.6279 6.61968 24.0698 6.61968 23.407C6.65471 22.7442 6.79481 22.2035 7.03998 21.7849C7.075 21.75 7.09252 21.7326 7.09252 21.7326C7.05749 21.593 7.03998 21.4186 7.03998 21.2093C7.00495 21.2791 6.98744 21.314 6.98744 21.314C6.98744 21.1744 6.98744 21.0523 6.98744 20.9477C7.02247 20.843 7.03998 20.7558 7.03998 20.686V20.7384C7.03998 20.4942 7.03998 20.1977 7.03998 19.8488C7.075 19.4651 7.11003 19.0988 7.14505 18.75C7.2151 18.3663 7.26764 18 7.30266 17.6512C7.37271 17.3023 7.44276 17.0058 7.51281 16.7616C7.44276 16.6221 7.44276 16.4651 7.51281 16.2907C7.75799 14.7209 7.88057 13.1512 7.88057 11.5814C7.88057 10.0116 7.96814 8.44186 8.14326 6.87209C7.82804 6.87209 7.60038 6.87209 7.46028 6.87209C7.32018 6.87209 7.19759 6.87209 7.09252 6.87209C7.02247 6.83721 6.91739 6.80233 6.77729 6.76744C6.67222 6.73256 6.47958 6.68023 6.19939 6.61047H6.25192C6.11182 6.57558 5.97172 6.57558 5.83162 6.61047C5.69152 6.64535 5.55142 6.66279 5.41133 6.66279C5.3763 6.62791 5.35879 6.59302 5.35879 6.55814H4.83342C4.79839 6.55814 4.78088 6.50581 4.78088 6.40116C4.53571 6.40116 4.3781 6.38372 4.30805 6.34884C4.238 6.31395 4.02785 6.3314 3.6776 6.40116C3.78268 6.29651 3.78268 6.26163 3.6776 6.29651C3.60755 6.29651 3.50248 6.31395 3.36238 6.34884C3.2573 6.38372 3.16974 6.40116 3.09969 6.40116C3.06467 6.40116 3.13472 6.34884 3.30984 6.24418C2.95959 6.31395 2.76696 6.34884 2.73193 6.34884C2.69691 6.34884 2.5393 6.34884 2.2591 6.34884C2.119 6.34884 1.96139 6.29651 1.78626 6.19186C1.61114 6.05232 1.40099 6.01744 1.15582 6.08721C1.29592 6.08721 1.31343 6.12209 1.20835 6.19186C1.10328 6.22674 1.01572 6.26163 0.94567 6.29651C0.875621 6.19186 0.875621 6.13953 0.94567 6.13953H0C0.0350247 6.10465 0.0700491 6.05233 0.105074 5.98256C0.140099 5.87791 0.192638 5.82558 0.262687 5.82558C0.262687 5.7907 0.210148 5.77325 0.105074 5.77325C0.175123 5.63372 0.315223 5.61628 0.525372 5.72093C0.700496 5.7907 0.823081 5.7907 0.893131 5.72093C0.788056 5.65116 0.682983 5.61628 0.577909 5.61628C0.43781 5.5814 0.332737 5.52907 0.262687 5.4593C0.437811 5.42442 0.612933 5.33721 0.788057 5.19767C0.928156 5.02326 1.1383 4.88372 1.4185 4.77907C1.80378 4.63954 2.2591 4.53488 2.78447 4.46512C3.34486 4.36046 3.94029 4.2907 4.57073 4.25581C5.20118 4.22093 5.83162 4.20349 6.46207 4.20349C7.12754 4.1686 7.75799 4.15116 8.35341 4.15116C8.49351 3.97675 8.59858 3.83721 8.66863 3.73256C8.7737 3.59302 8.9138 3.48837 9.08893 3.41861C9.36913 3.34884 9.66684 3.38372 9.98206 3.52326C10.3323 3.66279 10.665 3.73256 10.9803 3.73256C11.7858 3.80232 12.5389 3.85465 13.2394 3.88954C13.9399 3.88954 14.6404 3.92442 15.3408 3.99419C15.4459 3.99419 15.551 4.04651 15.6561 4.15116C15.7611 4.25581 15.8312 4.30814 15.8662 4.30814C16.2865 4.30814 16.8119 4.32558 17.4423 4.36047C18.1078 4.36047 18.7908 4.39535 19.4913 4.46512C20.2268 4.5 20.9098 4.55233 21.5402 4.62209C22.2057 4.69186 22.7311 4.76163 23.1163 4.8314C23.1514 4.8314 23.2214 4.86628 23.3265 4.93605C23.4666 5.00581 23.5016 5.07558 23.4316 5.14535ZM7.40774 35.1802C7.51281 35.0756 7.53033 34.9535 7.46028 34.814C7.42525 34.6744 7.44276 34.5698 7.51281 34.5C7.44276 34.5 7.40774 34.5174 7.40774 34.5523C7.40774 34.5872 7.37271 34.6047 7.30266 34.6047C7.26764 34.6047 7.25013 34.5698 7.25013 34.5V34.9709C7.28515 35.1105 7.33769 35.1802 7.40774 35.1802ZM7.09252 34.7093C7.12754 34.7093 7.11003 34.6919 7.03998 34.657C7.03998 34.5174 7.02247 34.4302 6.98744 34.3954V34.5C6.98744 34.6395 6.95242 34.7791 6.88237 34.9186C6.84734 35.0233 6.88237 35.1453 6.98744 35.2849V35.1802C7.09252 35.1802 7.14505 35.1454 7.14505 35.0756V34.9709H7.09252C7.09252 34.9012 7.09252 34.8663 7.09252 34.8663C7.12754 34.8314 7.12754 34.7791 7.09252 34.7093ZM7.30266 33.8721H7.19759C7.19759 33.907 7.18008 33.9244 7.14505 33.9244C7.14505 33.9244 7.14505 33.9419 7.14505 33.9767C7.18008 33.9767 7.2151 33.9767 7.25013 33.9767C7.32018 33.9419 7.39023 33.9419 7.46028 33.9767V33.6628H7.30266V33.8721ZM5.72655 32.7733C5.7966 32.7384 5.81411 32.6337 5.77909 32.4593C5.74406 32.2849 5.72655 32.1628 5.72655 32.093C5.72655 32.2674 5.70904 32.3895 5.67401 32.4593C5.63899 32.5291 5.6565 32.6337 5.72655 32.7733ZM7.7755 35.4942H7.72296V35.6512V35.7035V35.7558V35.9128H7.7755V35.4942L7.82804 35.4419C7.79301 35.4419 7.7755 35.3895 7.7755 35.2849C7.7755 35.25 7.75799 35.2151 7.72296 35.1802C7.72296 35.2151 7.70545 35.25 7.67042 35.2849C7.67042 35.3198 7.68794 35.3721 7.72296 35.4419L7.7755 35.4942ZM7.61789 34.7093C7.61789 34.8837 7.61789 34.9709 7.61789 34.9709H7.67042V34.9186C7.67042 34.8837 7.68794 34.8663 7.72296 34.8663C7.65291 34.657 7.68794 34.5 7.82804 34.3954H7.67042C7.67042 34.5698 7.65291 34.6744 7.61789 34.7093ZM7.03998 33.8721C7.03998 33.8023 7.05749 33.7326 7.09252 33.6628C7.12754 33.5581 7.11003 33.4709 7.03998 33.4012C7.03998 33.4709 7.02247 33.5581 6.98744 33.6628C6.95242 33.7326 6.96993 33.8023 7.03998 33.8721ZM7.30266 33.2442C7.47779 33.1395 7.4953 33.0523 7.3552 32.9826H7.40774V32.9302C7.33769 32.9651 7.30266 32.9826 7.30266 32.9826V33.2442ZM6.56714 33.8721C6.60217 33.8721 6.61968 33.8547 6.61968 33.8198C6.61968 33.7849 6.63719 33.8023 6.67222 33.8721C6.67222 33.8023 6.68973 33.75 6.72476 33.7151C6.75978 33.6802 6.74227 33.6628 6.67222 33.6628H6.61968H6.67222C6.67222 33.6628 6.67222 33.6454 6.67222 33.6105V33.5058C6.63719 33.5058 6.61968 33.5407 6.61968 33.6105V33.6628C6.61968 33.7326 6.60217 33.8023 6.56714 33.8721ZM7.98565 35.7035C8.02067 35.7035 8.03818 35.7209 8.03818 35.7558L8.09072 35.6512V35.4942C8.02067 35.4942 7.98565 35.564 7.98565 35.7035ZM7.46028 35.4419C7.3552 35.3372 7.32018 35.2849 7.3552 35.2849H7.30266L7.3552 35.4419H7.46028ZM6.82983 35.4942V35.3895C6.82983 35.3198 6.81232 35.2849 6.77729 35.2849C6.81232 35.3547 6.81232 35.4419 6.77729 35.5465C6.77729 35.6163 6.79481 35.686 6.82983 35.7558V35.4942ZM6.93491 35.4419C6.93491 35.4767 6.91739 35.5291 6.88237 35.5988C6.84734 35.6337 6.86486 35.686 6.93491 35.7558V35.4419ZM8.03818 35.9651H7.98565V36.0698C7.98565 36.1395 8.00316 36.1744 8.03818 36.1744V35.9651ZM12.0835 38.843C12.1536 38.843 12.1711 38.8779 12.1361 38.9477C12.1011 38.9826 12.1186 39 12.1886 39C12.1886 38.9651 12.1711 38.9477 12.1361 38.9477C12.1361 38.9128 12.1361 38.8779 12.1361 38.843L12.0835 38.7907V38.843ZM7.40774 35.1802C7.37271 35.0407 7.37271 34.9535 7.40774 34.9186V35.1802ZM8.72117 39.314V39.2616V39.314ZM7.61789 34.657V34.7093V34.657ZM8.72117 39.2616C8.72117 39.2267 8.72117 39.2093 8.72117 39.2093C8.75619 39.2093 8.77371 39.2267 8.77371 39.2616H8.72117ZM8.72117 39.157H8.77371H8.72117Z" fill="#00112C"/>
<path d="M50.0273 23.4593C49.9572 23.6337 49.8521 23.7558 49.7121 23.8256C49.607 23.8953 49.5194 24.0698 49.4494 24.3488C49.5194 24.3488 49.5895 24.314 49.6595 24.2442C49.6595 24.314 49.6245 24.3837 49.5544 24.4535C49.5194 24.5233 49.4844 24.5756 49.4494 24.6105C49.4143 24.6802 49.3968 24.7151 49.3968 24.7151H49.5544L48.924 25.5C48.994 25.5 49.0641 25.4651 49.1341 25.3953C49.2042 25.2907 49.2392 25.2558 49.2392 25.2907C49.2392 25.4651 49.1341 25.6221 48.924 25.7616C49.0291 25.7267 49.0991 25.6919 49.1341 25.657C49.1692 25.6221 49.2217 25.5698 49.2918 25.5C49.1166 25.7791 48.8364 26.1628 48.4512 26.6512C48.1009 27.1395 47.7857 27.5581 47.5055 27.907C47.5755 27.907 47.6106 27.9244 47.6106 27.9593C47.6106 27.9593 47.4705 28.1337 47.1903 28.4826C47.2953 28.4826 47.4354 28.3605 47.6106 28.1163C47.8207 27.8721 47.9608 27.6977 48.0309 27.593C47.9958 27.5233 47.9783 27.4884 47.9783 27.4884H47.9258L48.8715 26.2849V26.4942C48.8715 26.5291 48.8539 26.5465 48.8189 26.5465C48.8189 26.5465 48.8189 26.564 48.8189 26.5988V26.6512C48.8539 26.6512 48.9065 26.6163 48.9765 26.5465C49.0466 26.4767 49.1166 26.407 49.1867 26.3372C49.0466 26.5465 48.889 26.7733 48.7138 27.0174C48.5737 27.2267 48.4161 27.4186 48.241 27.593C48.206 27.593 48.1359 27.6802 48.0309 27.8547C47.9258 27.9942 47.7857 28.1686 47.6106 28.3779C47.4705 28.5872 47.3129 28.7791 47.1377 28.9535C46.9976 29.093 46.8575 29.1628 46.7174 29.1628C46.7174 29.2674 46.6999 29.3198 46.6649 29.3198V29.3721C46.6649 29.407 46.6649 29.4244 46.6649 29.4244C46.6999 29.4244 46.7174 29.4419 46.7174 29.4767C46.7525 29.4419 46.875 29.3198 47.0852 29.1105C47.2953 28.9012 47.4179 28.7965 47.4529 28.7965C47.523 28.7965 47.558 28.7442 47.558 28.6395C47.558 28.5349 47.558 28.5174 47.558 28.5872C47.6981 28.5174 47.7857 28.4128 47.8207 28.2733C47.8908 28.0988 47.9783 28.0116 48.0834 28.0116C47.8733 28.3953 47.6456 28.7616 47.4004 29.1105C47.1903 29.4244 46.9626 29.7384 46.7174 30.0523C46.6824 30.0523 46.6299 30.1221 46.5598 30.2616C46.5248 30.3663 46.4898 30.3837 46.4547 30.314C46.3497 30.3837 46.2971 30.5058 46.2971 30.6802C46.2271 30.7151 46.1045 30.8721 45.9294 31.1512C45.7542 31.3953 45.5616 31.6744 45.3515 31.9884C45.1413 32.2674 44.9487 32.5291 44.7736 32.7733C44.5984 33.0174 44.4934 33.1395 44.4583 33.1395V33.0872C44.4583 32.9826 44.4934 32.9302 44.5634 32.9302C44.6685 32.8954 44.721 32.7907 44.721 32.6163C44.5809 32.7558 44.4758 32.8779 44.4058 32.9826C44.3357 33.0872 44.2307 33.1919 44.0906 33.2965C44.1256 33.2965 44.1431 33.3314 44.1431 33.4012C44.1431 33.5407 44.003 33.7849 43.7228 34.1337C43.4426 34.4477 43.1099 34.7791 42.7246 35.1279C42.3393 35.4419 41.9716 35.7558 41.6213 36.0698C41.2711 36.3488 41.0259 36.5407 40.8858 36.6453C40.3955 36.9593 39.8701 37.2384 39.3097 37.4826C38.7493 37.6919 38.1714 37.7965 37.576 37.7965C36.5602 37.7965 35.6846 37.4302 34.9491 36.6977C34.2486 35.9302 33.8984 34.657 33.8984 32.8779C33.8984 31.7616 33.9684 30.5581 34.1085 29.2674C34.2836 27.9419 34.3712 26.686 34.3712 25.5C34.3712 25.2209 34.3712 24.9419 34.3712 24.6628C34.3712 24.3488 34.3362 24.0523 34.2661 23.7733C33.4956 24.5058 32.7425 25.3779 32.007 26.3895C31.3065 27.4012 30.6236 28.4128 29.9581 29.4244C29.2926 30.436 28.6797 31.3954 28.1193 32.3023C27.5939 33.2093 27.1386 33.9419 26.7533 34.5V34.6047C26.7533 34.814 26.5782 35.1105 26.2279 35.4942C25.9127 35.843 25.7026 36.0523 25.5975 36.1221C25.5274 36.4012 25.4224 36.75 25.2823 37.1686C25.1772 37.5523 25.1247 37.8488 25.1247 38.0581C24.9846 38.0581 24.9145 37.9709 24.9145 37.7965V37.6395C24.8795 37.7093 24.8445 37.7965 24.8094 37.9012C24.8094 38.0058 24.7744 38.0581 24.7044 38.0581V37.7965C24.6693 37.8663 24.6168 37.936 24.5468 38.0058C24.4767 38.0407 24.4417 38.0756 24.4417 38.1105C24.4067 38.1105 24.3891 38.0581 24.3891 37.9535V37.7442C24.3891 37.6744 24.3191 37.657 24.179 37.6919C24.0739 37.6919 24.0039 37.657 23.9688 37.5872V37.6395L23.6011 38.0058C23.5661 37.9709 23.531 37.8488 23.496 37.6395L23.4435 37.7965L23.2859 37.6395C23.2859 37.7093 23.2684 37.7616 23.2333 37.7965C23.1983 37.7965 23.1983 37.8663 23.2333 38.0058C23.1633 38.0058 23.1107 37.936 23.0757 37.7965V37.8488C23.0407 37.8837 23.0232 37.9012 23.0232 37.9012C23.0582 37.936 23.0757 37.9709 23.0757 38.0058C23.0757 38.0407 23.0582 38.0581 23.0232 38.0581H22.9706C22.9356 38.0581 22.9181 38.0407 22.9181 38.0058C22.848 38.0058 22.813 38.1454 22.813 38.4244C22.778 38.4244 22.6729 38.3895 22.4978 38.3198C22.3227 38.25 22.2351 38.1802 22.2351 38.1105C22.2351 38.0407 22.3227 37.9884 22.4978 37.9535C22.6729 37.9186 22.778 37.8837 22.813 37.8488H22.4978C22.2877 37.8488 22.1826 37.814 22.1826 37.7442C22.1826 37.7791 22.1651 37.814 22.13 37.8488C22.13 37.8488 22.13 37.8663 22.13 37.9012C22.13 37.9709 22.13 38.0233 22.13 38.0581C22.1651 38.093 22.1826 38.1279 22.1826 38.1628V38.2151C22.1476 38.2151 22.1125 38.1977 22.0775 38.1628C22.0775 38.1279 22.0425 38.1105 21.9724 38.1105C21.9724 38.25 21.9549 38.3198 21.9199 38.3198C21.8849 38.3198 21.8674 38.25 21.8674 38.1105V38.0581C21.8323 38.0233 21.8148 37.9535 21.8148 37.8488C21.8148 37.7442 21.7798 37.6744 21.7097 37.6395C21.6397 37.6744 21.6047 37.7267 21.6047 37.7965C21.6047 37.8663 21.6047 37.936 21.6047 38.0058C21.4996 37.9012 21.4471 37.814 21.4471 37.7442C21.4471 37.9186 21.4471 38.0407 21.4471 38.1105C21.4821 38.1802 21.4996 38.2674 21.4996 38.3721C21.4295 38.3721 21.377 38.3372 21.342 38.2674C21.342 38.1628 21.2894 38.093 21.1844 38.0581V38.0058C21.1844 37.9709 21.1669 37.936 21.1318 37.9012C21.0968 37.8314 21.0793 37.7616 21.0793 37.6919C21.0443 37.7616 21.0268 37.8314 21.0268 37.9012C21.0268 38.0407 21.0443 38.1802 21.0793 38.3198C21.1143 38.4593 21.1143 38.564 21.0793 38.6337C21.0443 38.7035 20.9917 38.6686 20.9217 38.5291C20.8867 38.3547 20.8516 38.2151 20.8166 38.1105C20.7816 38.0756 20.7291 38.0233 20.659 37.9535C20.589 37.8488 20.5714 37.7965 20.6065 37.7965H20.4489C20.4489 38.0058 20.4138 38.1105 20.3438 38.1105C20.2737 38.0756 20.2387 38.1454 20.2387 38.3198C20.2387 38.3547 20.2562 38.407 20.2912 38.4767C20.2912 38.5465 20.2912 38.5988 20.2912 38.6337C20.3263 38.6686 20.3438 38.7035 20.3438 38.7384C20.1336 38.5988 19.9235 38.2326 19.7133 37.6395C19.5032 37.0465 19.4507 36.314 19.5557 35.4419C19.8709 32.9302 20.2037 30.3488 20.5539 27.6977C20.9392 25.0465 21.3245 22.3953 21.7097 19.7442C22.095 17.0581 22.4628 14.4244 22.813 11.843C23.1983 9.22674 23.5485 6.73256 23.8638 4.36047C23.9338 3.83721 24.0739 3.31395 24.2841 2.7907C24.4942 2.26744 24.7744 1.81395 25.1247 1.43023C25.4749 1.01163 25.8777 0.680232 26.333 0.436045C26.7883 0.156977 27.2787 0.017443 27.8041 0.017443C28.1193 0.017443 28.4695 0.017443 28.8548 0.017443C29.2751 -0.0174423 29.6604 -7.57434e-07 30.0106 0.0697679C30.3959 0.104651 30.7111 0.19186 30.9563 0.331396C31.2015 0.470931 31.324 0.715117 31.324 1.06395C31.4992 1.37791 31.5342 2.11047 31.4291 3.26163C31.324 4.41279 31.1314 5.82558 30.8512 7.5C30.571 9.13953 30.2208 10.9709 29.8005 12.9942C29.4152 14.9826 29.0124 16.9709 28.5921 18.9593C28.1718 20.9128 27.7865 22.7791 27.4363 24.5581C27.0861 26.3372 26.8058 27.8547 26.5957 29.1105C27.086 28.3779 27.6114 27.5581 28.1718 26.6512C28.7672 25.7093 29.4152 24.8372 30.1157 24.0349C30.8162 23.2326 31.5867 22.5523 32.4273 21.9942C33.2679 21.436 34.2136 21.157 35.2643 21.157C36.14 21.157 36.858 21.3314 37.4184 21.6802C37.9788 21.9942 38.4166 22.4302 38.7318 22.9884C39.047 23.5116 39.2572 24.1395 39.3622 24.8721C39.5023 25.6047 39.5724 26.3721 39.5724 27.1744C39.5724 28.2907 39.4848 29.4419 39.3097 30.6279C39.1696 31.814 39.0295 32.8953 38.8894 33.8721C38.8544 33.9419 38.8369 34.064 38.8369 34.2384C38.8369 34.343 38.8544 34.3954 38.8894 34.3954C39.1696 34.3605 39.6249 33.9942 40.2554 33.2965C40.8858 32.564 41.6038 31.6744 42.4094 30.6279C43.25 29.5814 44.1081 28.4477 44.9837 27.2267C45.8593 26.0058 46.6999 24.8547 47.5055 23.7733L47.6631 23.6686C47.6631 23.5988 47.6806 23.564 47.7156 23.564C47.7507 23.564 47.7682 23.5814 47.7682 23.6163C47.7682 23.6163 47.8032 23.6163 47.8733 23.6163C47.8733 23.5116 47.9083 23.4593 47.9783 23.4593C48.0484 23.4593 48.0659 23.4767 48.0309 23.5116C47.9958 23.5465 48.0133 23.564 48.0834 23.564C48.2585 23.4593 48.3986 23.3198 48.5037 23.1453V23.25C48.5737 23.25 48.6263 23.2326 48.6613 23.1977C48.6613 23.2326 48.6788 23.25 48.7138 23.25C48.7489 23.25 48.7664 23.2674 48.7664 23.3023L49.0816 23.1977C49.2217 23.1628 49.3443 23.093 49.4494 22.9884V23.0407L49.5019 22.9884C49.5019 23.0233 49.5369 22.9709 49.607 22.8314V23.1453C49.677 23.1453 49.7296 23.2151 49.7646 23.3547C49.8346 23.4942 49.9222 23.5291 50.0273 23.4593ZM46.6124 28.7442C46.6474 28.6744 46.6824 28.5872 46.7174 28.4826C46.7875 28.343 46.8575 28.2384 46.9276 28.1686C46.9276 28.1337 46.9101 28.1163 46.875 28.1163C46.77 28.1163 46.6824 28.186 46.6124 28.3256C46.5423 28.4302 46.4723 28.5174 46.4022 28.5872L46.1395 29.0058C46.1045 29.0058 46.087 28.9884 46.087 28.9535C46.0169 28.8837 45.9469 28.9535 45.8768 29.1628C45.8068 29.3372 45.7718 29.4942 45.7718 29.6337C45.9119 29.5988 45.9819 29.4593 45.9819 29.2151C46.0169 29.2151 46.1045 29.1802 46.2446 29.1105C46.3847 29.0407 46.5073 28.9186 46.6124 28.7442ZM35.0016 32.8779C35.1417 32.8779 35.2118 32.7558 35.2118 32.5116C35.2118 32.2326 35.2118 32.0233 35.2118 31.8837C35.1417 31.8488 35.1067 31.936 35.1067 32.1453C35.1417 32.3198 35.1242 32.407 35.0542 32.407C35.0542 32.2326 35.0542 32.093 35.0542 31.9884C35.0542 31.8488 35.0892 31.6919 35.1593 31.5174L35.0542 31.4128C35.0542 31.3779 35.0367 31.3953 35.0016 31.4651C34.9666 31.5349 34.9491 31.5523 34.9491 31.5174C34.8791 31.5872 34.8791 31.6395 34.9491 31.6744C35.0192 31.7093 35.0192 31.7791 34.9491 31.8837V32.093C34.9491 32.1977 34.9491 32.3198 34.9491 32.4593C34.9841 32.564 35.0016 32.6686 35.0016 32.7733C34.9316 32.843 34.9491 32.9477 35.0542 33.0872V32.9826C35.0542 32.9477 35.0367 32.9128 35.0016 32.8779ZM48.1885 26.6512C48.2585 26.5814 48.3286 26.4593 48.3986 26.2849C48.5037 26.1105 48.5737 25.9884 48.6088 25.9186C48.2585 26.0581 48.0834 26.25 48.0834 26.4942C48.0834 26.5291 48.1184 26.5814 48.1885 26.6512ZM35.6321 30.6279C35.6321 30.3488 35.6321 30.2616 35.6321 30.3663C35.6671 30.436 35.7197 30.4012 35.7897 30.2616C35.7897 30.2267 35.7722 30.1919 35.7372 30.157C35.7372 30.1221 35.7372 30.1395 35.7372 30.2093C35.7372 30.2791 35.7197 30.2965 35.6846 30.2616C35.6496 30.1919 35.5971 30.1919 35.527 30.2616C35.457 30.2616 35.4395 30.314 35.4745 30.4186C35.5095 30.5233 35.527 30.593 35.527 30.6279H35.6321ZM35.6321 30.7849C35.5971 30.7849 35.5445 30.8198 35.4745 30.8895C35.4395 30.9244 35.4219 30.9593 35.4219 30.9942C35.457 31.0988 35.492 31.1686 35.527 31.2035C35.562 31.2384 35.5796 31.2384 35.5796 31.2035C35.6146 31.1686 35.6321 31.0465 35.6321 30.8372V30.7849ZM35.4219 32.6686C35.527 32.6686 35.5445 32.6337 35.4745 32.564C35.4395 32.4593 35.4219 32.3895 35.4219 32.3547C35.4219 32.2849 35.4395 32.25 35.4745 32.25C35.4745 32.25 35.457 32.1977 35.4219 32.093H35.3694V32.5116C35.4044 32.5116 35.4219 32.564 35.4219 32.6686ZM35.3169 31.4128C35.3169 31.343 35.2994 31.2907 35.2643 31.2558C35.2643 31.186 35.2643 31.1163 35.2643 31.0465C35.1943 31.2558 35.1593 31.3605 35.1593 31.3605C35.1593 31.3953 35.1768 31.4128 35.2118 31.4128C35.2818 31.4128 35.3169 31.4128 35.3169 31.4128ZM35.4219 29.6337C35.2818 29.9477 35.2468 30.0872 35.3169 30.0523C35.3869 30.0174 35.4395 29.8605 35.4745 29.5814C35.4395 29.6163 35.4219 29.6337 35.4219 29.6337ZM35.4219 33.8198C35.4219 33.6802 35.3694 33.6105 35.2643 33.6105C35.2643 33.6454 35.3169 33.7151 35.4219 33.8198ZM46.9801 28.1686C47.0151 28.1686 47.0852 28.0814 47.1903 27.907C47.1552 27.907 47.0852 27.9942 46.9801 28.1686ZM34.9491 33.4012V33.5058C34.9491 33.5756 34.9841 33.6105 35.0542 33.6105C35.0542 33.4709 35.0192 33.4012 34.9491 33.4012ZM34.739 34.7093C34.739 34.7442 34.774 34.7965 34.844 34.8663V34.814C34.844 34.7442 34.8265 34.6744 34.7915 34.6047C34.7565 34.5 34.7039 34.4477 34.6339 34.4477C34.7039 34.4826 34.739 34.5698 34.739 34.7093ZM45.7718 29.9477C45.7367 29.9826 45.7017 30 45.6667 30C45.6667 30 45.6492 30.0174 45.6142 30.0523C45.5791 30.0872 45.5616 30.1221 45.5616 30.157C45.7017 30.157 45.7718 30.0872 45.7718 29.9477ZM47.0852 27.2267C47.0502 27.2616 47.0327 27.2965 47.0327 27.3314C46.9976 27.3663 46.9801 27.4186 46.9801 27.4884C47.0151 27.4535 47.0327 27.436 47.0327 27.436C47.0327 27.4012 47.0502 27.3663 47.0852 27.3314C47.0852 27.2965 47.1027 27.2616 47.1377 27.2267H47.0852ZM34.7915 34.8663C34.7565 34.9012 34.7565 34.936 34.7915 34.9709V34.8663Z" fill="#00112C"/>
<path d="M63.2387 29.6337C63.1687 29.7384 63.0636 29.9477 62.9235 30.2616C62.7834 30.5407 62.6608 30.6802 62.5557 30.6802C62.5557 30.6105 62.5032 30.6453 62.3981 30.7849C62.2931 30.8895 62.2405 30.9942 62.2405 31.0988C62.1354 31.2733 62.0654 31.4128 62.0304 31.5174C61.9953 31.5872 61.9428 31.6744 61.8728 31.7791C61.9078 31.7791 61.8903 31.8314 61.8202 31.936C61.7502 32.0407 61.6976 32.0756 61.6626 32.0407C61.6276 32.1105 61.575 32.1977 61.505 32.3023C61.4349 32.407 61.3649 32.4942 61.2948 32.564C60.9796 32.9128 60.6994 33.2442 60.4543 33.5581C60.2441 33.8372 60.034 34.0814 59.8238 34.2907C59.6487 34.5 59.5261 34.6221 59.456 34.657C59.351 34.7267 59.2459 34.7791 59.1408 34.814C59.0358 34.8488 58.9307 34.9535 58.8256 35.1279C58.5454 35.4419 58.3002 35.6337 58.0901 35.7035C57.8799 35.7733 57.5822 35.8953 57.1969 36.0698C56.7416 36.1744 56.4614 36.2267 56.3564 36.2267C56.2513 36.1919 56.1637 36.1744 56.0937 36.1744C55.3932 36.4186 54.7277 36.2791 54.0973 35.7558C53.5018 35.2326 53.0815 34.657 52.8364 34.0291C52.6612 33.6105 52.5211 33.0698 52.4161 32.407C52.346 31.7442 52.2935 31.0465 52.2585 30.314C52.2234 29.5465 52.2059 28.7965 52.2059 28.064C52.2409 27.2965 52.276 26.5988 52.311 25.9709C52.2409 26.0407 52.1884 26.1453 52.1534 26.2849C52.1184 26.3895 52.1008 26.4593 52.1008 26.4942C51.8907 27.157 51.593 27.9244 51.2077 28.7965C50.8224 29.6337 50.4021 30.4535 49.9468 31.2558C49.5265 32.0233 49.1237 32.6686 48.7385 33.1919C48.3532 33.7151 48.073 33.9593 47.8979 33.9244C47.7228 34.0988 47.5827 34.2733 47.4776 34.4477C47.4075 34.5872 47.2849 34.7093 47.1098 34.814C46.3743 35.1628 45.6388 35.0756 44.9033 34.5523C44.518 34.2733 44.2378 33.9419 44.0627 33.5581C43.9226 33.1744 43.8525 32.7558 43.8525 32.3023C43.9576 30.6628 44.2903 29.1279 44.8507 27.6977C45.4461 26.2326 46.0941 24.9419 46.7946 23.8256C47.32 23.0233 47.9154 22.2384 48.5809 21.4709C49.2814 20.7035 50.1395 20.0756 51.1552 19.5872C51.7156 19.3081 52.3986 19.2558 53.2041 19.4302C54.0097 19.5698 54.6927 19.7965 55.2531 20.1105C55.4982 20.25 55.6033 20.3721 55.5683 20.4767C55.5333 20.5814 55.5158 20.6512 55.5158 20.686C55.3757 20.8953 55.2005 20.9651 54.9904 20.8953C54.9904 21.0698 55.0254 21.1744 55.0955 21.2093C55.1655 21.2093 55.2005 21.2791 55.2005 21.4186C55.1655 21.593 55.1305 21.7151 55.0955 21.7849C55.0955 21.8547 55.0955 21.9767 55.0955 22.1512C55.0955 22.2209 55.0955 22.2907 55.0955 22.3605C55.0955 22.3953 55.078 22.5698 55.0429 22.8837C55.0429 23.7209 55.0429 24.75 55.0429 25.9709C55.0429 27.157 55.0604 28.343 55.0955 29.5291C55.1305 30.6802 55.183 31.7267 55.2531 32.6686C55.3582 33.6105 55.4807 34.2384 55.6208 34.5523C55.796 34.6919 56.1112 34.5872 56.5665 34.2384C57.0218 33.8547 57.5297 33.3488 58.0901 32.7209C58.6505 32.093 59.2459 31.3779 59.8763 30.5756C60.5418 29.7733 61.1547 29.0058 61.7151 28.2733C62.2755 27.5058 62.7659 26.8081 63.1862 26.1802C63.6415 25.5523 63.9567 25.0988 64.1319 24.8198C64.2369 24.6802 64.342 24.5233 64.4471 24.3488C64.5872 24.1395 64.7098 23.9826 64.8148 23.8779C64.9549 23.7733 65.06 23.7384 65.1301 23.7733C65.2351 23.7733 65.3227 23.8953 65.3927 24.1395C65.4278 24.2442 65.4803 24.3314 65.5504 24.4012C65.6204 24.4709 65.6729 24.593 65.708 24.7674C65.813 25.3256 65.743 25.8837 65.4978 26.4419L65.2877 26.9128C65.0775 26.9826 64.99 27.0698 65.025 27.1744C65.095 27.2442 65.025 27.3837 64.8148 27.593C64.7448 27.7674 64.6397 27.9244 64.4996 28.064C64.3945 28.1686 64.307 28.2907 64.2369 28.4302V28.3256C64.307 28.186 64.377 28.0814 64.4471 28.0116C64.377 28.0116 64.377 27.9419 64.4471 27.8023C64.412 27.8721 64.377 27.9244 64.342 27.9593C64.307 27.9593 64.2719 27.9767 64.2369 28.0116C64.2369 28.0465 64.2194 28.0988 64.1844 28.1686C64.1494 28.2035 64.1319 28.186 64.1319 28.1163L63.659 28.7965C63.4489 29.0058 63.3088 29.1802 63.2387 29.3198C63.2037 29.4244 63.0636 29.6163 62.8184 29.8953L62.871 29.9477C62.941 29.8779 62.9935 29.7907 63.0286 29.686C63.0986 29.5814 63.1862 29.5291 63.2913 29.5291V29.5814L63.2387 29.6337ZM46.7946 33.0349C46.8646 33.1047 46.9172 33.0872 46.9522 32.9826C47.9329 31.1686 48.8435 29.4767 49.6841 27.907C50.5247 26.3372 51.4529 24.6279 52.4686 22.7791C52.5036 22.5698 52.6262 22.3081 52.8364 21.9942C53.0815 21.6802 53.2567 21.4884 53.3617 21.4186C53.0815 21.593 52.7663 21.8547 52.4161 22.2035C52.0658 22.5523 51.7156 22.9535 51.3653 23.407C51.0501 23.8605 50.7174 24.3488 50.3671 24.8721C50.0519 25.3953 49.7717 25.9186 49.5265 26.4419C49.0012 27.4535 48.4758 28.5698 47.9504 29.7907C47.4601 31.0116 47.0748 32.093 46.7946 33.0349ZM61.8202 30C61.7502 29.9651 61.7677 29.9128 61.8728 29.843C62.0129 29.7384 62.0829 29.6686 62.0829 29.6337C62.1179 29.5988 62.1354 29.5291 62.1354 29.4244C62.1354 29.3895 62.1179 29.3721 62.0829 29.3721L61.9778 29.4767C61.8728 29.5814 61.8027 29.6686 61.7677 29.7384C61.8728 29.6337 61.9078 29.6163 61.8728 29.686C61.8377 29.7209 61.7852 29.8081 61.7151 29.9477C61.7502 29.8779 61.6801 29.9826 61.505 30.2616C61.3299 30.5058 61.1898 30.7151 61.0847 30.8895H61.1372C61.1022 30.9244 61.0847 30.9419 61.0847 30.9419C61.1547 30.9419 61.2423 30.8721 61.3474 30.7326C61.4875 30.5581 61.54 30.436 61.505 30.3663C61.505 30.3663 61.5575 30.3663 61.6626 30.3663C61.7327 30.2267 61.7677 30.157 61.7677 30.157C61.8027 30.1221 61.8202 30.0698 61.8202 30ZM61.8202 30.7849C61.9253 30.7151 61.9953 30.6453 62.0304 30.5756C62.0654 30.5058 62.1179 30.436 62.188 30.3663C62.258 30.1919 62.2931 30.1221 62.2931 30.157C62.2931 30.157 62.258 30.1221 62.188 30.0523C62.1179 30.1221 62.0304 30.2267 61.9253 30.3663C61.8202 30.4709 61.7327 30.6105 61.6626 30.7849C61.6276 30.7151 61.6101 30.6977 61.6101 30.7326C61.6101 30.7674 61.5926 30.7849 61.5575 30.7849H61.505V30.8372L61.6101 30.9419V30.9942C61.6451 30.9942 61.6801 30.9419 61.7151 30.8372C61.7852 30.6977 61.8377 30.6279 61.8728 30.6279L61.8202 30.7849ZM50.6298 27.436V27.3837L50.5773 27.3314C50.5422 27.3663 50.5247 27.3837 50.5247 27.3837L50.7349 27.0698V26.9651C50.6648 27.0349 50.6298 27.0872 50.6298 27.1221C50.6298 27.0872 50.5948 27.0698 50.5247 27.0698C50.5247 27 50.5072 27.0349 50.4722 27.1744C50.4372 27.2791 50.3846 27.3837 50.3146 27.4884C50.3146 27.4884 50.3846 27.4535 50.5247 27.3837L50.4197 27.5407L49.9468 28.064C50.0169 28.0988 50.0519 28.0988 50.0519 28.064C50.0869 27.9942 50.157 27.9767 50.262 28.0116L50.6298 27.436ZM61.505 31.8837C61.6101 31.7093 61.7151 31.6047 61.8202 31.5698C61.7502 31.5 61.7502 31.4477 61.8202 31.4128C61.8903 31.3779 61.8903 31.3256 61.8202 31.2558L61.7677 31.3081C61.8377 31.2035 61.8728 31.1512 61.8728 31.1512C61.9078 31.1163 61.9253 31.0291 61.9253 30.8895C61.8553 31.064 61.7677 31.2035 61.6626 31.3081C61.5575 31.4128 61.47 31.5 61.3999 31.5698C61.47 31.6047 61.47 31.657 61.3999 31.7267C61.3299 31.7616 61.3649 31.814 61.505 31.8837C61.3999 31.8837 61.3474 31.9186 61.3474 31.9884C61.2773 31.9884 61.2773 32.0407 61.3474 32.1453L61.505 31.8837ZM64.0793 28.3779V28.4302H64.2369C64.1319 28.5349 64.0793 28.6221 64.0793 28.6919C64.0793 28.7616 64.0093 28.814 63.8692 28.8488C63.9392 28.8488 63.9392 28.8837 63.8692 28.9535C63.7991 28.9884 63.7641 28.9884 63.7641 28.9535C63.7991 29.0233 63.7991 29.0756 63.7641 29.1105C63.7291 29.1454 63.694 29.1454 63.659 29.1105C63.659 29.0756 63.6765 29.0058 63.7116 28.9012C63.7816 28.7965 63.9042 28.6221 64.0793 28.3779ZM61.8202 29.4244C61.8903 29.4942 61.9603 29.4244 62.0304 29.2151C62.1354 29.0058 62.2055 28.8837 62.2405 28.8488C62.1705 28.814 62.0654 28.8837 61.9253 29.0581C61.8202 29.2326 61.7852 29.3547 61.8202 29.4244ZM62.3981 28.5349C62.3981 28.5698 62.4156 28.6047 62.4507 28.6395C62.4857 28.6744 62.4857 28.7093 62.4507 28.7442C62.4507 28.7791 62.5557 28.7093 62.7659 28.5349C62.976 28.3256 63.0636 28.2384 63.0286 28.2733C62.9935 28.2384 62.9585 28.2209 62.9235 28.2209C62.8184 28.2209 62.7659 28.2384 62.7659 28.2733C62.6608 28.3779 62.6083 28.4651 62.6083 28.5349H62.3981ZM51.1552 26.0233C51.2252 25.9186 51.2603 25.8314 51.2603 25.7616C51.2953 25.657 51.3653 25.5523 51.4704 25.4477V25.343C51.4354 25.3779 51.4179 25.4128 51.4179 25.4477C51.3828 25.4826 51.3478 25.5 51.3128 25.5C51.2778 25.5 51.2603 25.5174 51.2603 25.5523C51.2603 25.5872 51.2427 25.5872 51.2077 25.5523C51.1727 25.6221 51.1552 25.6744 51.1552 25.7093C51.1902 25.7093 51.1727 25.7791 51.1026 25.9186V25.9709C51.1026 26.0058 51.1202 26.0233 51.1552 26.0233ZM50.945 28.1163C51.0501 28.186 51.1202 28.1686 51.1552 28.064C51.2252 27.9244 51.2778 27.8372 51.3128 27.8023C51.2427 27.8372 51.1727 27.8895 51.1026 27.9593C51.0676 28.0291 51.0151 28.0814 50.945 28.1163ZM61.2948 31.3081C61.3999 31.343 61.4875 31.2907 61.5575 31.1512L61.4525 31.0465C61.3824 31.1163 61.3474 31.1686 61.3474 31.2035C61.3474 31.2384 61.3299 31.2733 61.2948 31.3081ZM51.0501 26.5465C51.0851 26.5116 51.1202 26.4942 51.1552 26.4942C51.2252 26.4942 51.2778 26.4593 51.3128 26.3895L51.2077 26.3372C51.2427 26.3372 51.2778 26.3198 51.3128 26.2849L51.4179 26.1802C51.2778 26.2151 51.1727 26.3023 51.1026 26.4419C51.1026 26.4767 51.0851 26.5116 51.0501 26.5465ZM50.84 28.064C50.875 27.9942 50.9275 27.9419 50.9976 27.907C51.0676 27.8372 51.1202 27.7674 51.1552 27.6977L50.7874 28.0116L50.84 28.064ZM50.7349 27.907L50.7874 27.8547C50.8575 27.7849 50.91 27.75 50.945 27.75C50.945 27.7151 50.9275 27.6977 50.8925 27.6977C50.8925 27.6628 50.8925 27.6279 50.8925 27.593C50.9625 27.4884 50.9625 27.4884 50.8925 27.593C50.8224 27.6977 50.7524 27.8023 50.6823 27.907H50.7349ZM62.3981 30.5756C62.4332 30.5058 62.4507 30.4709 62.4507 30.4709C62.5207 30.4012 62.5732 30.3314 62.6083 30.2616C62.6783 30.1919 62.7309 30.1221 62.7659 30.0523L62.4507 30.3663C62.4507 30.4012 62.4332 30.436 62.3981 30.4709C62.3981 30.5058 62.3981 30.5407 62.3981 30.5756ZM52.0483 24.4535C52.1184 24.5233 52.2234 24.4186 52.3635 24.1395L52.311 24.1919C52.2409 24.2616 52.2059 24.2791 52.2059 24.2442L52.0483 24.4535ZM50.0519 28.8488C50.0869 28.8488 50.1219 28.814 50.157 28.7442C50.262 28.6395 50.2796 28.5872 50.2095 28.5872C50.1745 28.5872 50.1395 28.6047 50.1044 28.6395C50.1044 28.7442 50.0869 28.814 50.0519 28.8488ZM50.262 27.3837C50.157 27.4884 50.1044 27.5407 50.1044 27.5407V27.6453C50.1044 27.6453 50.157 27.593 50.262 27.4884C50.262 27.4186 50.262 27.3837 50.262 27.3837ZM50.3671 28.1163C50.4372 28.0814 50.4722 28.064 50.4722 28.064V28.0116C50.5773 27.907 50.5773 27.8547 50.4722 27.8547C50.4722 27.9244 50.4372 28.0116 50.3671 28.1163ZM61.1898 31.4128C61.2598 31.4128 61.2948 31.4128 61.2948 31.4128V31.3081L61.1898 31.4128ZM49.8418 28.2209C49.8768 28.2209 49.9118 28.2035 49.9468 28.1686V28.1163C49.8768 28.186 49.8418 28.2209 49.8418 28.2209ZM64.4996 27.907C64.4646 27.9419 64.4471 27.9593 64.4471 27.9593V28.0116C64.4821 27.9767 64.4996 27.9419 64.4996 27.907Z" fill="#00112C"/>
<path d="M75.9055 37.4826C75.3101 37.4826 74.8022 37.4128 74.3819 37.2733C73.9616 37.1337 73.5063 36.8023 73.016 36.2791C72.7358 36 72.5606 35.5465 72.4906 34.9186C72.4556 34.2558 72.4556 33.5233 72.4906 32.7209C72.5606 31.9186 72.6482 31.0988 72.7533 30.2616C72.8584 29.3895 72.9459 28.6047 73.016 27.907C73.121 27.1744 73.1736 26.564 73.1736 26.0756C73.1736 25.5872 73.086 25.3256 72.9109 25.2907C72.1754 26.1279 71.5274 26.9477 70.967 27.75C70.4417 28.5523 69.9513 29.3721 69.496 30.2093C69.0407 31.0116 68.6028 31.8488 68.1825 32.7209C67.7623 33.5581 67.3244 34.4302 66.8691 35.3372V35.4942C66.5889 36.2267 66.2212 36.6802 65.7658 36.8547C65.3105 36.9942 64.8027 36.7849 64.2423 36.2267C63.9621 36.1221 63.6994 36.0523 63.4542 36.0174C63.2441 35.9826 63.0514 35.9477 62.8763 35.9128C62.7012 35.8779 62.5436 35.8256 62.4035 35.7558C62.2984 35.6512 62.2108 35.4767 62.1408 35.2326C62.1408 34.3953 62.1933 33.4186 62.2984 32.3023C62.4035 31.186 62.5261 30.0523 62.6662 28.9012C62.8413 27.7151 63.0339 26.5814 63.2441 25.5C63.4542 24.3837 63.6468 23.4244 63.822 22.6221C63.927 22.2384 64.0847 21.9593 64.2948 21.7849C64.505 21.6105 64.7326 21.4884 64.9778 21.4186C65.258 21.3488 65.5557 21.2965 65.8709 21.2616C66.1861 21.2267 66.4838 21.157 66.764 21.0523C67.0092 20.843 67.2719 20.7384 67.5521 20.7384C67.8323 20.7384 68.0775 20.8081 68.2876 20.9477C68.5328 21.0872 68.7079 21.2791 68.813 21.5233C68.9531 21.7674 69.0056 22.0116 68.9706 22.2558C68.9006 22.6395 68.7955 23.1105 68.6554 23.6686C68.5503 24.2267 68.4277 24.8198 68.2876 25.4477C68.1825 26.0756 68.06 26.686 67.9199 27.2791C67.8148 27.8721 67.7097 28.3779 67.6046 28.7965C67.8148 28.4826 68.095 28.0291 68.4452 27.436C68.7955 26.843 69.1983 26.2326 69.6536 25.6047C70.1089 24.9767 70.6168 24.3837 71.1772 23.8256C71.7376 23.2674 72.333 22.8663 72.9634 22.6221C73.2787 22.4826 73.699 22.4128 74.2243 22.4128C74.7497 22.4128 75.2751 22.4651 75.8004 22.5698C76.3608 22.6744 76.8512 22.8488 77.2715 23.093C77.7268 23.3023 78.042 23.5814 78.2172 23.9302C78.5324 24.593 78.6725 25.4651 78.6374 26.5465C78.6024 27.593 78.5149 28.6395 78.3748 29.686C78.2697 30.7326 78.1471 31.6919 78.007 32.564C77.9019 33.4012 77.9194 33.9593 78.0595 34.2384C78.1296 34.4128 78.4098 34.2907 78.9001 33.8721C79.4255 33.4186 80.0559 32.7733 80.7915 31.936C81.527 31.0988 82.3326 30.1221 83.2082 29.0058C84.1188 27.8547 85.012 26.686 85.8876 25.5C86.0977 25.186 86.2904 25.0814 86.4655 25.186C86.6756 25.2558 86.8507 25.4128 86.9908 25.657C87.1309 25.9012 87.2185 26.1802 87.2535 26.4942C87.3236 26.7733 87.3236 26.9826 87.2535 27.1221C86.9033 27.7151 86.4655 28.3953 85.9401 29.1628C85.4498 29.8953 84.8894 30.6453 84.2589 31.4128C83.6285 32.1802 82.9455 32.9302 82.21 33.6628C81.5095 34.3954 80.7915 35.0581 80.0559 35.6512C79.3555 36.2093 78.6374 36.6628 77.9019 37.0116C77.2014 37.3256 76.536 37.4826 75.9055 37.4826Z" fill="#00112C"/>
<path d="M100.225 14.25C100.505 14.25 100.855 14.2151 101.276 14.1453C101.731 14.0756 101.959 14.0756 101.959 14.1453C101.959 14.2849 101.818 14.5465 101.538 14.9302C101.293 15.2791 100.978 15.6628 100.593 16.0814C100.242 16.4651 99.8746 16.8488 99.4894 17.2326C99.1391 17.6163 98.8764 17.8953 98.7013 18.0698C98.0708 18.6977 97.4929 19.2907 96.9676 19.8488C96.4772 20.407 96.0044 20.9477 95.5491 21.4709C95.1288 21.9593 94.691 22.4651 94.2356 22.9884C93.8153 23.5116 93.3775 24.0523 92.9222 24.6105C92.572 25.0291 92.3968 25.4128 92.3968 25.7616C92.3968 26.1105 92.4844 26.3895 92.6595 26.5988C93.8504 28.064 95.0237 29.5116 96.1795 30.9419C97.3704 32.3721 98.7188 33.6977 100.225 34.9186C100.295 34.9884 100.4 35.0581 100.54 35.1279C100.68 35.1977 100.803 35.2674 100.908 35.3372C100.838 35.3372 100.768 35.3372 100.698 35.3372C100.663 35.3023 100.593 35.2849 100.488 35.2849H100.33C100.225 35.2849 100.172 35.2674 100.172 35.2326C100.172 35.1628 100.102 35.1279 99.9622 35.1279C99.9272 35.1977 99.8571 35.2151 99.752 35.1802C99.682 35.1453 99.647 35.1105 99.647 35.0756C99.5069 35.1454 99.4018 35.2151 99.3317 35.2849C99.2967 35.3198 99.2442 35.3372 99.1741 35.3372C99.0691 35.3372 98.8939 35.3198 98.6488 35.2849C98.4386 35.25 98.246 35.2326 98.0709 35.2326C97.8607 35.2326 97.6856 35.2674 97.5455 35.3372C97.5805 35.3721 97.598 35.4244 97.598 35.4942C97.598 35.5291 97.5455 35.5465 97.4404 35.5465C96.5998 35.5465 95.8293 35.407 95.1288 35.1279C94.4633 34.814 93.8329 34.4302 93.2374 33.9767C92.642 33.4884 92.0816 32.9651 91.5563 32.407C91.0659 31.814 90.5756 31.2384 90.0852 30.6802C89.9101 31.4128 89.77 32.1802 89.6649 32.9826C89.5949 33.7849 89.5598 34.5872 89.5598 35.3895C89.5598 36.0872 89.5949 36.75 89.6649 37.3779C89.735 38.0058 89.8751 38.6512 90.0852 39.314C90.0852 39.3837 90.0852 39.436 90.0852 39.4709C90.1202 39.4709 90.1377 39.4884 90.1377 39.5233C90.1377 39.5581 90.1202 39.5756 90.0852 39.5756C90.0852 39.5756 90.0852 39.593 90.0852 39.6279C90.0152 39.593 89.9801 39.5756 89.9801 39.5756H89.9276C89.8576 39.5756 89.8225 39.593 89.8225 39.6279C89.8225 39.6628 89.8225 39.7151 89.8225 39.7849C89.8575 39.8198 89.8751 39.8547 89.8751 39.8895L89.7174 39.7326C89.7174 39.7674 89.6999 39.8023 89.6649 39.8372C89.5949 39.7674 89.5598 39.6977 89.5598 39.6279C89.5949 39.5581 89.5248 39.5233 89.3497 39.5233C89.4197 39.6628 89.4548 39.7326 89.4548 39.7326V39.7849C89.4197 39.7849 89.3147 39.6977 89.1395 39.5233V39.6279C89.1045 39.6279 89.0695 39.6105 89.0345 39.5756C89.0345 39.5058 89.017 39.4535 88.9819 39.4186C89.052 39.5581 89.087 39.6454 89.087 39.6802C89.122 39.7151 89.1746 39.8198 89.2446 39.9942C89.1746 39.9942 89.1395 39.9593 89.1395 39.8895L89.087 39.8372V39.9942C89.052 39.9942 88.9819 39.9593 88.8768 39.8895C88.7718 39.8198 88.7017 39.75 88.6667 39.6802C88.7017 39.75 88.7192 39.8372 88.7192 39.9419C88.7543 40.0116 88.8068 40.0814 88.8768 40.1512C88.8068 40.1512 88.7718 40.1686 88.7718 40.2035C88.6317 40.064 88.5091 39.9942 88.404 39.9942H88.3515C88.3515 40.064 88.369 40.1163 88.404 40.1512H88.3515C88.3165 40.1512 88.2989 40.1337 88.2989 40.0988L88.2464 40.0465C88.2114 40.0814 88.1588 40.0988 88.0888 40.0988C88.0538 40.0988 88.0363 40.0988 88.0363 40.0988C88.0363 40.064 88.0187 40.0465 87.9837 40.0465C87.9487 40.0465 87.9312 40.064 87.9312 40.0988C87.9662 40.1337 87.9837 40.1686 87.9837 40.2035H87.8261V40.4128C87.7911 40.3081 87.721 40.2384 87.616 40.2035C87.5459 40.1337 87.4584 40.064 87.3533 39.9942V40.0988C87.3533 40.2384 87.3183 40.343 87.2482 40.4128C87.1782 40.2035 87.1081 40.064 87.0381 39.9942V40.1512C87.0381 40.186 87.0205 40.2035 86.9855 40.2035C86.8804 40.2035 86.8279 40.1686 86.8279 40.0988H86.7754C86.7403 40.064 86.7053 40.0465 86.6703 40.0465C86.6703 40.1163 86.5652 40.1686 86.3551 40.2035C86.1799 40.2035 86.0574 40.2035 85.9873 40.2035C85.4619 40.2035 85.0592 40.0116 84.779 39.6279C84.5338 39.2093 84.3937 38.7384 84.3587 38.2151C83.9033 38.0407 83.6056 37.6047 83.4655 36.907C83.3254 36.2093 83.2554 35.4593 83.2554 34.657C83.2554 32.6686 83.3955 30.6977 83.6757 28.7442C83.9909 26.7907 84.2886 24.8721 84.5688 22.9884C84.849 20.8605 85.2693 18.7849 85.8297 16.7616C86.3901 14.7035 87.1256 12.6977 88.0363 10.7442C88.2464 10.6395 88.4215 10.5523 88.5616 10.4826C88.7368 10.3779 88.9294 10.3779 89.1395 10.4826C89.2796 10.1337 89.3847 9.80233 89.4548 9.48837C89.5598 9.17442 89.6649 8.91279 89.77 8.70349C89.8751 8.4593 90.0152 8.26744 90.1903 8.12791C90.4004 7.98837 90.6806 7.90116 91.0309 7.86628C91.276 7.8314 91.5037 7.88372 91.7139 8.02326C91.959 8.12791 92.1867 8.19767 92.3968 8.23256C92.4319 8.23256 92.4494 8.21512 92.4494 8.18023C93.1149 8.28488 93.5176 8.56395 93.6577 9.01744C93.7978 9.43605 93.8679 9.92442 93.8679 10.4826C93.8679 11.1802 93.7978 11.8605 93.6577 12.5233C93.5176 13.1512 93.36 13.7616 93.1849 14.3547C92.5545 16.6919 92.0116 19.0116 91.5563 21.314C92.1166 20.6512 92.7296 19.9186 93.3951 19.1163C94.0955 18.2791 94.8135 17.5116 95.5491 16.814C96.3196 16.0814 97.0902 15.4709 97.8607 14.9826C98.6663 14.4942 99.4543 14.25 100.225 14.25ZM88.9294 37.9012C88.9994 37.9709 89.0345 38.0581 89.0345 38.1628C89.0695 38.3023 89.1045 38.4244 89.1395 38.5291C89.2096 38.5988 89.2271 38.7035 89.1921 38.843V38.8954C89.2971 38.9302 89.3497 39 89.3497 39.1047C89.3847 39.1744 89.4548 39.2442 89.5598 39.314C89.5248 39.1744 89.4898 39.0349 89.4548 38.8954C89.4197 38.7209 89.4022 38.564 89.4022 38.4244C89.4372 38.4593 89.4548 38.4593 89.4548 38.4244C89.4548 38.4593 89.4723 38.4767 89.5073 38.4767C89.5423 38.4419 89.5423 38.3895 89.5073 38.3198C89.5073 38.25 89.5073 38.1802 89.5073 38.1105C89.4723 38.1802 89.4548 38.2151 89.4548 38.2151C89.4898 38.1802 89.4898 38.1977 89.4548 38.2674L89.4022 38.3198C89.3672 38.0407 89.2971 37.7093 89.1921 37.3256C89.087 36.907 89.052 36.6105 89.087 36.436C89.2271 36.5058 89.2796 36.5407 89.2446 36.5407C89.2446 36.4709 89.1746 36.3837 89.0345 36.2791C88.9294 36.1744 88.9119 36.0523 88.9819 35.9128C88.9819 35.8779 88.9644 35.8605 88.9294 35.8605C88.9294 35.8256 88.9294 35.7907 88.9294 35.7558V35.7035L88.8768 35.6512C88.8068 35.6163 88.7718 35.5814 88.7718 35.5465C88.8068 35.4767 88.7893 35.407 88.7192 35.3372C88.7192 35.4419 88.7543 35.5465 88.8243 35.6512H88.7718C88.7367 35.686 88.7192 35.7209 88.7192 35.7558C88.7543 35.7907 88.7718 35.8256 88.7718 35.8605C88.7718 35.8953 88.7893 35.9128 88.8243 35.9128V36.0174L88.7192 36.1221C88.6842 35.9477 88.6317 35.686 88.5616 35.3372C88.5266 34.9535 88.4741 34.7267 88.404 34.657C88.369 34.7616 88.3515 34.8837 88.3515 35.0233C88.3865 35.1628 88.4215 35.3023 88.4566 35.4419C88.4916 35.5814 88.5091 35.7384 88.5091 35.9128L88.4566 35.9651C88.4916 36.1395 88.5266 36.2965 88.5616 36.436C88.5967 36.5756 88.5791 36.7151 88.5091 36.8547C88.4741 36.8895 88.439 36.907 88.404 36.907C88.5091 36.9419 88.5441 36.9942 88.5091 37.064C88.5091 37.0988 88.4916 37.1512 88.4566 37.2209C88.5266 37.3605 88.5441 37.5 88.5091 37.6395C88.5091 37.7791 88.5266 37.9186 88.5616 38.0581C88.4215 37.814 88.334 37.5174 88.2989 37.1686C88.2639 36.7849 88.2114 36.5581 88.1413 36.4884C88.1063 36.6628 88.0888 36.8372 88.0888 37.0116C88.0888 37.1512 88.0888 37.2733 88.0888 37.3779C87.9487 37.1337 87.8611 36.8895 87.8261 36.6453C87.7911 36.3663 87.7561 36.157 87.721 36.0174C87.686 36.1221 87.6335 36.4186 87.5634 36.907C87.5284 37.3605 87.6335 37.8488 87.8786 38.3721C87.8786 38.2674 87.8436 38.2849 87.7736 38.4244C87.7385 38.4593 87.7736 38.5291 87.8786 38.6337C87.9487 38.6686 87.9662 38.6686 87.9312 38.6337C87.9312 38.5988 87.9487 38.5988 87.9837 38.6337C87.9837 38.6686 88.0363 38.7035 88.1413 38.7384C88.0713 38.843 88.1413 38.9477 88.3515 39.0523C88.2814 38.8779 88.2639 38.7907 88.2989 38.7907C88.369 38.7558 88.3515 38.7035 88.2464 38.6337L88.404 38.5814C88.4741 38.5465 88.4916 38.4942 88.4566 38.4244C88.4215 38.3547 88.4215 38.3023 88.4566 38.2674H88.5091C88.5091 38.2674 88.5441 38.3023 88.6142 38.3721C88.6142 38.407 88.6317 38.4419 88.6667 38.4767L88.7192 38.3198C88.7893 38.4244 88.8068 38.5465 88.7718 38.686C88.7718 38.8256 88.8243 38.9826 88.9294 39.157C88.9294 39.1221 88.9469 39.0698 88.9819 39V39.0523C88.9819 39.0872 88.9994 39.1047 89.0345 39.1047C89.1045 38.7907 89.0345 38.6163 88.8243 38.5814C88.8593 38.5465 88.8944 38.5465 88.9294 38.5814C88.9644 38.5814 88.9994 38.5465 89.0345 38.4767C89.0695 38.4419 89.052 38.407 88.9819 38.3721C88.9469 38.3023 88.9644 38.2326 89.0345 38.1628L88.9819 38.0581H88.9294C88.8593 38.0233 88.8593 37.9709 88.9294 37.9012ZM88.9294 34.4477C88.9994 34.5174 88.9994 34.5872 88.9294 34.657C88.8944 34.7267 88.8768 34.7965 88.8768 34.8663L88.9294 35.0233C88.9994 35.093 89.0345 35.2151 89.0345 35.3895C89.0345 35.5291 89.0695 35.6163 89.1395 35.6512C89.1045 35.4419 89.087 35.1105 89.087 34.657C89.122 34.1686 89.1921 33.7674 89.2971 33.4535C89.2271 33.4535 89.1571 33.5581 89.087 33.7674C89.052 33.9419 88.9994 34.1686 88.9294 34.4477ZM88.8243 36.2791V36.3837C88.8243 36.4535 88.8068 36.4884 88.7718 36.4884C88.8068 36.5581 88.7893 36.6454 88.7192 36.75C88.6492 36.6454 88.6492 36.5233 88.7192 36.3837C88.7543 36.3488 88.7718 36.314 88.7718 36.2791V36.2267L88.8243 36.2791ZM89.4022 38.9477L89.3497 38.8954C89.3147 38.8954 89.2796 38.8779 89.2446 38.843V38.7907C89.2446 38.7558 89.2621 38.7209 89.2971 38.686C89.4723 38.7558 89.5073 38.843 89.4022 38.9477ZM88.8768 37.5349C88.8068 37.4302 88.7893 37.3605 88.8243 37.3256C88.8944 37.3605 88.9294 37.4128 88.9294 37.4826C88.9294 37.5174 88.9119 37.5349 88.8768 37.5349ZM87.721 36.75V36.907C87.721 36.9419 87.7035 36.9593 87.6685 36.9593C87.6685 36.9593 87.6685 36.9767 87.6685 37.0116V37.064C87.6685 37.064 87.6685 37.0291 87.6685 36.9593V36.907L87.721 36.75ZM88.8768 37.7965V37.6919H88.9819L88.9294 37.7965H88.8768ZM88.1413 37.5872C88.1063 37.6221 88.0713 37.6395 88.0363 37.6395H87.9837V37.5872H88.1413ZM89.5073 38.3198C89.4723 38.3547 89.4548 38.3895 89.4548 38.4244C89.4548 38.3895 89.4548 38.3721 89.4548 38.3721C89.4898 38.3721 89.5073 38.3547 89.5073 38.3198Z" fill="#00112C"/>
<path d="M125.865 23.407C125.9 23.5814 125.918 23.7907 125.918 24.0349C125.953 24.2791 125.971 24.5407 125.971 24.8198C125.971 26.0058 125.83 27.5233 125.55 29.3721C125.305 31.2209 124.972 33.2616 124.552 35.4942C124.132 37.7267 123.694 40.0814 123.239 42.5581C122.783 45.0349 122.345 47.4767 121.925 49.8837C121.505 52.3256 121.155 54.6628 120.874 56.8953C120.629 59.1279 120.507 61.1163 120.507 62.8605C120.507 62.9302 120.489 62.9651 120.454 62.9651C120.384 62.9651 120.367 62.9302 120.402 62.8605C120.437 62.8256 120.419 62.8081 120.349 62.8081C120.279 62.8081 120.226 62.8256 120.191 62.8605C120.191 62.9302 120.139 62.9826 120.034 63.0174C119.999 62.843 119.946 62.7558 119.876 62.7558C119.771 62.7558 119.666 62.8953 119.561 63.1744C119.456 63.4884 119.351 63.6802 119.246 63.75C118.861 63.75 118.668 63.8372 118.668 64.0116C118.668 64.2209 118.685 64.343 118.72 64.3779H118.563C118.528 64.3779 118.51 64.3605 118.51 64.3256C118.475 64.3256 118.423 64.3605 118.353 64.4302C118.283 64.3256 118.248 64.2733 118.248 64.2733C118.072 64.2733 117.95 64.343 117.88 64.4826C117.845 64.657 117.792 64.7442 117.722 64.7442C117.687 64.7442 117.67 64.7267 117.67 64.6919C117.67 64.6919 117.635 64.6919 117.565 64.6919C117.495 64.6919 117.442 64.7442 117.407 64.8488C117.372 64.9884 117.319 65.1453 117.249 65.3198H117.144C117.074 65.3198 117.022 65.3546 116.987 65.4244C116.952 65.4942 116.864 65.564 116.724 65.6337C116.619 65.7384 116.444 65.8256 116.199 65.8953C115.988 65.9651 115.673 66 115.253 66C115.148 66 115.025 65.9826 114.885 65.9477C114.745 65.9128 114.605 65.7733 114.465 65.5291C114.325 65.3198 114.202 64.9709 114.097 64.4826C114.027 64.0291 113.992 63.3663 113.992 62.4942C113.992 62.3198 113.992 62.1453 113.992 61.9709C113.992 61.7965 114.01 61.6744 114.045 61.6047V61.4477C114.045 61.2384 114.097 60.9419 114.202 60.5581C114.202 60.4535 114.185 60.3488 114.15 60.2442C114.15 60.1395 114.15 60.0349 114.15 59.9302C114.15 59.7907 114.202 59.686 114.307 59.6163C114.307 59.5116 114.29 59.407 114.255 59.3023C114.255 59.1977 114.255 59.1105 114.255 59.0407C114.255 58.4826 114.342 57.9419 114.517 57.4186C114.693 56.9302 114.78 56.4419 114.78 55.9535V55.5349C114.78 55.1163 114.85 54.8198 114.99 54.6453C115.13 53.4593 115.341 52.2384 115.621 50.9826C115.936 49.7267 116.094 48.5581 116.094 47.4767H115.988C115.953 47.4767 115.936 47.4593 115.936 47.4244C116.006 47.0756 116.111 46.7616 116.251 46.4826C116.391 46.2384 116.461 45.9767 116.461 45.6977H116.409C116.374 45.6977 116.356 45.7151 116.356 45.75C116.356 45.8198 116.304 45.8721 116.199 45.907C116.374 44.9651 116.584 43.8663 116.829 42.6105C117.074 41.3895 117.302 40.1337 117.512 38.843C117.757 37.5174 117.985 36.2442 118.195 35.0233C118.44 33.7674 118.65 32.6686 118.825 31.7267C118.475 32.1454 118.09 32.5814 117.67 33.0349C117.249 33.4535 116.812 33.8372 116.356 34.1861C115.936 34.5349 115.481 34.8314 114.99 35.0756C114.535 35.2849 114.08 35.3895 113.624 35.3895C112.258 35.3895 111.313 34.9709 110.787 34.1337C110.262 33.2616 109.999 32.2151 109.999 30.9942C109.999 30.1919 110.087 29.3547 110.262 28.4826C110.437 27.5756 110.665 26.7209 110.945 25.9186C111.225 25.1163 111.523 24.3837 111.838 23.7209C112.188 23.0233 112.521 22.4651 112.836 22.0465C113.011 21.8372 113.292 21.6628 113.677 21.5233C114.062 21.3837 114.447 21.314 114.833 21.314C115.148 21.314 115.376 21.4186 115.516 21.6279C115.691 21.8372 115.778 22.0988 115.778 22.4128C115.778 22.9012 115.638 23.4593 115.358 24.0872C115.078 24.6802 114.763 25.3779 114.412 26.1802C114.097 26.9477 113.799 27.8023 113.519 28.7442C113.239 29.686 113.099 30.7326 113.099 31.8837C113.099 32.2674 113.151 32.5988 113.257 32.8779C113.397 33.1221 113.607 33.2442 113.887 33.2442C114.342 33.2442 114.903 32.8081 115.568 31.936C116.234 31.064 116.917 30.0349 117.617 28.8488C118.318 27.6628 118.983 26.4767 119.614 25.2907C120.279 24.1047 120.857 23.2151 121.347 22.6221C121.522 22.4128 121.75 22.2384 122.03 22.0988C122.31 21.9244 122.591 21.7849 122.871 21.6802C123.186 21.5407 123.449 21.436 123.659 21.3663C123.869 21.2965 124.009 21.2616 124.079 21.2616C124.464 21.2616 124.815 21.4709 125.13 21.8895C125.48 22.2733 125.725 22.7791 125.865 23.407ZM116.304 51.0872C116.339 50.9128 116.374 50.7384 116.409 50.564C116.444 50.4244 116.461 50.2849 116.461 50.1454V49.9884C116.356 50.0233 116.269 50.1628 116.199 50.407L116.094 50.8256C116.094 50.9302 116.111 51.0174 116.146 51.0872C116.006 51.4012 115.918 51.6802 115.883 51.9244C115.918 51.9942 115.936 52.0814 115.936 52.186C115.936 52.3256 115.883 52.3953 115.778 52.3953V52.2384C115.778 52.0291 115.796 51.8198 115.831 51.6105C115.901 51.4012 115.936 51.1919 115.936 50.9826V50.7733C115.866 50.9128 115.796 51.0349 115.726 51.1395C115.691 51.2791 115.673 51.436 115.673 51.6105V51.7151C115.603 51.7849 115.533 51.9244 115.463 52.1337C115.428 52.3779 115.376 52.6221 115.306 52.8663C115.27 53.1453 115.235 53.407 115.2 53.6512C115.165 53.9302 115.148 54.1395 115.148 54.2791C115.148 54.4186 115.165 54.5233 115.2 54.593C115.2 54.5581 115.218 54.5233 115.253 54.4884C115.323 54.4884 115.358 54.4535 115.358 54.3837V54.2791C115.358 54.2442 115.393 54.2093 115.463 54.1744V54.2791C115.463 54.3488 115.446 54.4012 115.411 54.436C115.411 54.4709 115.411 54.5058 115.411 54.5407H115.516C115.621 54.5058 115.691 54.4186 115.726 54.2791L115.778 54.436C115.813 54.436 115.831 54.4012 115.831 54.3314C115.831 54.2616 115.813 54.1744 115.778 54.0698C115.743 54 115.726 53.9302 115.726 53.8605H115.778C115.743 53.8256 115.726 53.7733 115.726 53.7035C115.726 53.5988 115.743 53.4942 115.778 53.3895C115.848 53.2849 115.883 53.1802 115.883 53.0756C115.883 53.0058 115.866 52.9535 115.831 52.9186C115.831 52.9186 115.831 52.8837 115.831 52.814C115.761 52.9884 115.726 53.1453 115.726 53.2849C115.726 53.4244 115.691 53.5291 115.621 53.5988C115.586 53.5988 115.568 53.5814 115.568 53.5465V53.3372C115.638 53.2674 115.656 53.1279 115.621 52.9186C115.621 52.7093 115.691 52.5698 115.831 52.5V52.7093C115.936 52.6395 115.988 52.5523 115.988 52.4477C115.988 52.343 116.006 52.2384 116.041 52.1337C116.111 52.0988 116.146 52.0814 116.146 52.0814C116.111 52.0465 116.094 52.0116 116.094 51.9767V51.9244C116.164 51.8546 116.199 51.75 116.199 51.6105C116.234 51.5058 116.286 51.4012 116.356 51.2965C116.321 51.2616 116.304 51.2267 116.304 51.1919V51.0872ZM115.673 59.8779C115.708 59.7035 115.743 59.5116 115.778 59.3023C115.848 59.1279 115.883 58.9535 115.883 58.7791C115.883 58.5349 115.778 58.3605 115.568 58.2558L115.516 58.3081C115.481 58.3081 115.463 58.2907 115.463 58.2558C115.498 58.2558 115.498 58.2558 115.463 58.2558C115.393 58.2558 115.341 58.3081 115.306 58.4128C115.306 58.5523 115.306 58.6744 115.306 58.7791C115.306 58.8837 115.341 59.1105 115.411 59.4593C115.27 59.8081 115.2 60.1046 115.2 60.3488C115.2 60.4186 115.2 60.4709 115.2 60.5058C115.235 60.5407 115.253 60.593 115.253 60.6628C115.323 60.4884 115.376 60.3663 115.411 60.2965C115.481 60.2267 115.516 60.1221 115.516 59.9826C115.516 59.9477 115.498 59.9302 115.463 59.9302C115.463 59.9302 115.463 59.9128 115.463 59.8779C115.498 59.8779 115.516 59.8779 115.516 59.8779C115.516 59.9128 115.533 59.9302 115.568 59.9302C115.603 59.9302 115.638 59.9128 115.673 59.8779ZM115.621 55.1686C115.516 55.2384 115.463 55.2907 115.463 55.3256C115.463 55.3605 115.481 55.3779 115.516 55.3779H115.568C115.533 55.4477 115.516 55.5349 115.516 55.6395C115.516 55.7791 115.463 55.9012 115.358 56.0058V55.9535L115.306 55.9012C115.2 56.2151 115.148 56.564 115.148 56.9477V57.2093C115.218 57.1395 115.253 57 115.253 56.7907C115.288 56.5814 115.358 56.4419 115.463 56.3721C115.428 56.3372 115.411 56.3023 115.411 56.2674C115.411 56.2326 115.393 56.1977 115.358 56.1628C115.358 56.1628 115.358 56.1453 115.358 56.1105C115.463 56.0407 115.551 55.9535 115.621 55.8488C115.586 55.9535 115.568 56.1279 115.568 56.3721C115.568 56.4419 115.586 56.4942 115.621 56.5291C115.761 56.4244 115.831 56.2151 115.831 55.9012V55.6919C115.901 55.6221 115.936 55.5698 115.936 55.5349V55.4302C115.901 55.3605 115.883 55.2907 115.883 55.2209C115.883 55.1512 115.866 55.0988 115.831 55.0639L115.673 55.5872C115.673 55.5174 115.638 55.4477 115.568 55.3779V55.3256C115.568 55.2907 115.568 55.2733 115.568 55.2733C115.603 55.2733 115.621 55.2384 115.621 55.1686ZM114.517 59.1977C114.587 59.093 114.623 58.936 114.623 58.7267C114.658 58.5174 114.675 58.3256 114.675 58.1512V58.0465C114.745 57.8721 114.815 57.7151 114.885 57.5756C114.955 57.4709 114.99 57.3488 114.99 57.2093V57.0523C114.885 57.0523 114.798 57.1395 114.728 57.3139C114.658 57.4884 114.587 57.6802 114.517 57.8895C114.482 58.1337 114.447 58.3779 114.412 58.6221C114.412 58.8663 114.412 59.0407 114.412 59.1453C114.412 59.1802 114.43 59.1977 114.465 59.1977H114.517ZM114.99 55.7442C114.885 55.9535 114.833 56.2849 114.833 56.7384V56.9477C114.903 56.9477 114.938 56.843 114.938 56.6337C114.973 56.4593 115.008 56.2674 115.043 56.0581C115.078 55.8488 115.113 55.6395 115.148 55.4302C115.183 55.2558 115.27 55.1686 115.411 55.1686C115.341 54.9593 115.288 54.8372 115.253 54.8023C115.218 54.8023 115.218 54.8023 115.253 54.8023C115.078 54.8023 114.99 55.0291 114.99 55.4826V55.7442ZM116.619 49.4128C116.689 48.8546 116.812 48.2965 116.987 47.7384C116.777 47.843 116.636 48.0349 116.566 48.3139C116.496 48.6279 116.461 48.907 116.461 49.1512V49.2558L116.356 49.3081C116.426 49.3779 116.444 49.4302 116.409 49.4651C116.374 49.5349 116.391 49.5698 116.461 49.5698C116.531 49.5698 116.549 49.5349 116.514 49.4651C116.514 49.4302 116.549 49.4128 116.619 49.4128ZM114.78 62.6512C114.85 62.6163 114.885 62.5465 114.885 62.4419V62.1279C114.885 62.0233 114.903 61.936 114.938 61.8663C114.833 61.9012 114.763 61.936 114.728 61.9709C114.728 62.0407 114.71 62.0756 114.675 62.0756C114.675 61.9012 114.675 61.7616 114.675 61.657C114.675 61.5523 114.64 61.4302 114.57 61.2907C114.535 61.3953 114.517 61.5523 114.517 61.7616V62.4942C114.587 62.564 114.64 62.5988 114.675 62.5988C114.745 62.5988 114.78 62.6163 114.78 62.6512ZM114.78 60.3488C114.78 60.2791 114.798 60.157 114.833 59.9826C114.868 59.843 114.885 59.7209 114.885 59.6163L114.833 59.5116C114.833 59.4419 114.85 59.3895 114.885 59.3547C114.92 59.3547 114.938 59.3198 114.938 59.25C114.938 59.2151 114.903 59.1628 114.833 59.093C114.833 59.0233 114.85 58.9709 114.885 58.9361C114.92 58.9012 114.938 58.8488 114.938 58.7791C114.938 58.7442 114.92 58.7093 114.885 58.6744C114.85 58.8488 114.798 59.0233 114.728 59.1977C114.693 59.3721 114.675 59.5814 114.675 59.8256C114.71 59.8605 114.728 59.9128 114.728 59.9826C114.728 60.1221 114.71 60.2267 114.675 60.2965C114.64 60.4012 114.623 60.4884 114.623 60.5581V60.6105C114.693 60.5756 114.728 60.5581 114.728 60.5581V60.4535C114.728 60.4186 114.745 60.3837 114.78 60.3488ZM114.36 61.5523C114.395 61.5523 114.412 61.5349 114.412 61.5C114.377 61.5 114.36 61.4826 114.36 61.4477V61.343C114.36 61.0988 114.377 60.8198 114.412 60.5058C114.447 60.2267 114.5 59.9477 114.57 59.6686L114.36 59.7209C114.36 59.8605 114.342 59.9826 114.307 60.0872C114.307 60.2267 114.307 60.3837 114.307 60.5581V60.7674C114.272 60.8372 114.255 60.9244 114.255 61.0291C114.255 61.0988 114.29 61.2733 114.36 61.5523ZM117.092 45.0698C117.162 44.9651 117.232 44.8256 117.302 44.6512C117.407 44.5116 117.46 44.3547 117.46 44.1802V44.0756C117.319 44.0407 117.214 44.1628 117.144 44.4419C117.109 44.7209 117.092 44.9302 117.092 45.0698ZM116.251 49.2558C116.251 49.0465 116.269 48.8372 116.304 48.6279C116.374 48.4186 116.409 48.2093 116.409 48C116.374 48.0698 116.321 48.157 116.251 48.2616C116.216 48.3663 116.199 48.4709 116.199 48.5756C116.199 48.6802 116.216 48.75 116.251 48.7849C116.181 48.7849 116.146 48.8547 116.146 48.9942C116.146 49.0988 116.181 49.186 116.251 49.2558ZM115.726 59.4593C115.656 59.5291 115.603 59.564 115.568 59.564C115.498 59.564 115.463 59.4942 115.463 59.3547C115.463 59.1105 115.516 58.936 115.621 58.8314C115.621 58.936 115.621 59.0233 115.621 59.093C115.656 59.1977 115.691 59.3198 115.726 59.4593ZM115.936 50.5116C116.041 50.3372 116.094 50.1802 116.094 50.0407C116.094 49.936 116.111 49.814 116.146 49.6744C116.076 49.7791 116.024 49.8837 115.988 49.9884C115.953 50.093 115.936 50.2326 115.936 50.407V50.5116ZM114.99 63.907C114.99 63.8372 114.973 63.7674 114.938 63.6977C114.938 63.6279 114.938 63.5581 114.938 63.4884C114.868 63.5581 114.833 63.6279 114.833 63.6977C114.833 63.7674 114.798 63.8198 114.728 63.8546C114.798 63.8546 114.833 63.8721 114.833 63.907C114.868 63.9767 114.92 64.0116 114.99 64.0116V63.907ZM115.621 63.1744C115.691 63.1047 115.726 63.0174 115.726 62.9128C115.761 62.843 115.778 62.7733 115.778 62.7035L115.621 62.7558C115.621 62.7907 115.603 62.8256 115.568 62.8605C115.568 62.9302 115.568 63 115.568 63.0698C115.568 63.1047 115.586 63.1395 115.621 63.1744ZM114.938 57.5756C114.938 57.75 114.955 57.8895 114.99 57.9942C115.06 57.9942 115.095 57.9244 115.095 57.7849V57.5756H114.938ZM115.883 54.9593C115.918 54.8546 115.953 54.75 115.988 54.6453C116.059 54.5407 116.094 54.436 116.094 54.3314L115.936 54.436C115.936 54.5407 115.918 54.6105 115.883 54.6453C115.883 54.7151 115.883 54.7849 115.883 54.8546V54.9593ZM114.57 59.564C114.535 59.5291 114.517 59.4942 114.517 59.4593V59.25C114.482 59.2849 114.447 59.3023 114.412 59.3023C114.377 59.3023 114.36 59.3372 114.36 59.407C114.36 59.3721 114.36 59.3895 114.36 59.4593C114.36 59.5291 114.395 59.564 114.465 59.564H114.57ZM115.043 59.6163C115.113 59.5465 115.148 59.4593 115.148 59.3547C115.148 59.2849 115.13 59.2326 115.095 59.1977C115.095 59.1628 115.095 59.1279 115.095 59.093V59.1453C115.095 59.2151 115.078 59.2674 115.043 59.3023C115.008 59.3721 114.99 59.4419 114.99 59.5116C114.99 59.5814 115.008 59.6163 115.043 59.6163ZM116.777 46.4302C116.777 46.3605 116.777 46.3081 116.777 46.2733C116.812 46.2733 116.829 46.2384 116.829 46.1686C116.794 46.1686 116.742 46.2035 116.671 46.2733C116.601 46.343 116.566 46.4128 116.566 46.4826L116.777 46.4302ZM115.673 60.2965C115.743 60.2965 115.778 60.2616 115.778 60.1919C115.778 60.157 115.761 60.1221 115.726 60.0872C115.726 60.0872 115.726 60.0523 115.726 59.9826L115.568 60.0349L115.673 60.2965ZM114.36 61.657L114.202 61.7093C114.167 61.7093 114.15 61.7267 114.15 61.7616C114.15 61.7965 114.167 61.8314 114.202 61.8663C114.237 61.936 114.255 61.9884 114.255 62.0233L114.36 61.657ZM116.041 56.1628C116.041 56.093 116.059 56.0233 116.094 55.9535C116.129 55.9186 116.146 55.8663 116.146 55.7965C116.146 55.7267 116.111 55.657 116.041 55.5872V56.1628ZM114.675 62.9651C114.675 63.0349 114.693 63.0872 114.728 63.1221C114.798 63.1919 114.833 63.2267 114.833 63.2267C114.868 63.2267 114.885 63.2093 114.885 63.1744C114.885 63.1047 114.885 63.0698 114.885 63.0698C114.885 63.1047 114.868 63.0698 114.833 62.9651H114.675ZM114.78 58.6221C114.885 58.6221 114.938 58.5872 114.938 58.5174V58.4128C114.833 58.4128 114.78 58.4826 114.78 58.6221ZM115.621 55.8488C115.621 55.7442 115.638 55.657 115.673 55.5872V55.6395C115.673 55.6744 115.656 55.6919 115.621 55.6919C115.621 55.7267 115.621 55.7791 115.621 55.8488Z" fill="#00112C"/>
<path d="M145.592 22.3605L144.961 22.5698L145.276 22.7267L145.224 22.8314C144.663 22.7965 144.12 22.8837 143.595 23.093C143.07 23.3023 142.614 23.4767 142.229 23.6163C142.299 23.3721 142.282 23.3547 142.177 23.564C142.107 23.7384 141.966 23.8256 141.756 23.8256C141.756 23.8605 141.634 23.9826 141.389 24.1919C141.143 24.3663 141.038 24.3663 141.073 24.1919C140.898 24.3663 140.688 24.5058 140.443 24.6105C140.233 24.6802 140.093 24.75 140.023 24.8198C139.953 24.8895 139.918 24.9593 139.918 25.0291C139.918 25.064 139.865 25.0814 139.76 25.0814C139.795 25.0814 139.795 25.0988 139.76 25.1337C139.76 25.1337 139.725 25.1337 139.655 25.1337C139.235 25.4128 138.779 25.6047 138.289 25.7093C137.799 25.7791 137.361 25.814 136.975 25.814V25.657C136.975 25.6221 136.958 25.6047 136.923 25.6047L136.765 25.657C136.94 26.9477 137.045 28.0814 137.081 29.0581C137.151 30.0349 137.028 31.1337 136.713 32.3547C136.713 32.4244 136.695 32.5465 136.66 32.7209C136.625 32.8953 136.573 33.1047 136.503 33.3488C136.468 33.593 136.415 33.8372 136.345 34.0814C136.275 34.2907 136.17 34.4477 136.03 34.5523C135.855 34.8663 135.732 35.1628 135.662 35.4419C135.592 35.7209 135.452 36 135.242 36.2791C135.067 36.5233 134.786 36.8023 134.401 37.1163C134.051 37.3954 133.49 37.7093 132.72 38.0581C132.545 38.1279 132.335 38.1628 132.089 38.1628C131.844 38.1628 131.582 38.1454 131.301 38.1105C130.951 38.0756 130.513 37.9012 129.988 37.5872C129.498 37.2733 129.147 36.8721 128.937 36.3837C128.447 35.3023 128.202 34.1337 128.202 32.8779C128.202 31.6221 128.289 30.4884 128.464 29.4767C128.675 28.4302 129.025 27.2965 129.515 26.0756C130.041 24.8198 130.671 23.6686 131.406 22.6221C132.177 21.5756 133.053 20.7384 134.033 20.1105C135.014 19.4477 136.117 19.1686 137.343 19.2733C137.483 19.2733 137.763 19.3081 138.184 19.3779C138.604 19.4128 138.989 19.5 139.34 19.6395C139.725 19.7442 140.023 19.8837 140.233 20.0581C140.443 20.2326 140.425 20.4244 140.18 20.6337C139.9 20.7035 139.672 20.7209 139.497 20.686C139.357 20.6163 139.2 20.5814 139.024 20.5814C137.413 21.314 136.065 22.6221 134.979 24.5058C133.893 26.3547 133.105 28.4302 132.615 30.7326C132.475 31.4651 132.335 32.2674 132.195 33.1395C132.089 34.0116 132.16 34.8837 132.405 35.7558C134.541 32.686 135.662 29.3547 135.767 25.7616V25.343C135.732 25.2733 135.75 25.2035 135.82 25.1337C135.89 25.064 135.925 24.9942 135.925 24.9244C135.89 24.8547 135.837 24.8023 135.767 24.7674C135.697 24.6977 135.68 24.6279 135.715 24.5581C135.645 24.3837 135.715 24.2791 135.925 24.2442C136.135 24.2093 136.31 24.2616 136.45 24.4012C137.045 24.2965 137.623 24.1395 138.184 23.9302C138.744 23.7209 139.322 23.4767 139.918 23.1977C140.513 22.9535 141.003 22.7616 141.389 22.6221C141.809 22.4477 142.212 22.3256 142.597 22.2558C143.017 22.186 143.438 22.1337 143.858 22.0988C144.313 22.0291 144.874 21.9593 145.539 21.8895V21.9419L144.383 22.2558L145.592 22.3081V22.3605ZM143.227 23.0407C143.823 22.8663 144.331 22.7791 144.751 22.7791C144.541 22.7093 144.278 22.7093 143.963 22.7791C143.683 22.814 143.42 22.8488 143.175 22.8837L143.227 23.0407ZM144.068 22.4128C144.103 22.4128 144.138 22.3953 144.173 22.3605C144.243 22.3256 144.208 22.2907 144.068 22.2558C143.998 22.3256 143.928 22.3605 143.858 22.3605C143.823 22.3256 143.77 22.3081 143.7 22.3081C143.665 22.3779 143.648 22.4128 143.648 22.4128H143.595C143.735 22.4826 143.893 22.4826 144.068 22.4128ZM142.755 22.7791C142.649 22.7791 142.562 22.814 142.492 22.8837C142.457 22.9186 142.422 22.936 142.387 22.936C142.422 22.9012 142.492 22.9012 142.597 22.936C142.737 22.9709 142.79 22.9186 142.755 22.7791ZM142.965 23.093C143.07 23.0581 143.105 22.9884 143.07 22.8837L143.017 22.936C142.947 23.0058 142.93 23.0581 142.965 23.093ZM142.807 23.093C142.772 23.1279 142.737 23.1453 142.702 23.1453C142.632 23.2151 142.614 23.25 142.649 23.25C142.79 23.2151 142.842 23.1628 142.807 23.093Z" fill="#00112C"/>
<path d="M165.318 25.1337C165.423 24.9942 165.545 24.8198 165.685 24.6105C165.825 24.3663 165.966 24.1744 166.106 24.0349C166.246 23.8953 166.368 23.8256 166.473 23.8256C166.578 23.7907 166.666 23.8953 166.736 24.1395C166.771 24.2442 166.824 24.3314 166.894 24.4012C166.964 24.4709 167.016 24.593 167.051 24.7674C167.156 25.3256 167.086 25.8837 166.841 26.4419C166.456 27.1744 165.931 28.0814 165.265 29.1628C164.6 30.2093 163.847 31.2384 163.006 32.25C162.165 33.2267 161.255 34.0814 160.274 34.814C159.328 35.5465 158.365 35.9302 157.384 35.9651C155.353 36.0349 153.9 35.5814 153.024 34.6047C152.148 33.593 151.71 31.9884 151.71 29.7907V29.5291C151.185 30.4709 150.642 31.3605 150.082 32.1977C149.521 33.0349 148.926 33.7674 148.296 34.3954C147.7 35.0233 147.07 35.5291 146.404 35.9128C145.774 36.2616 145.108 36.436 144.408 36.436C144.093 36.436 143.76 36.3488 143.41 36.1744C143.059 35.9651 142.709 35.7209 142.359 35.4419C142.044 35.1628 141.746 34.8663 141.466 34.5523C141.221 34.2035 141.045 33.8721 140.94 33.5581C140.8 33.2093 140.695 32.8081 140.625 32.3547C140.59 31.8663 140.573 31.3605 140.573 30.8372C140.573 29.8605 140.643 28.8488 140.783 27.8023C140.958 26.7209 141.186 25.6919 141.466 24.7151C141.746 23.7035 142.061 22.814 142.411 22.0465C142.797 21.2442 143.199 20.6512 143.62 20.2674C144.11 19.7791 144.635 19.4651 145.196 19.3256C145.756 19.186 146.299 19.1163 146.825 19.1163C146.86 19.2558 146.982 19.3953 147.192 19.5349C147.402 19.6395 147.613 19.7442 147.823 19.8488C148.068 19.9535 148.278 20.0756 148.453 20.2151C148.628 20.3198 148.716 20.4419 148.716 20.5814C148.716 20.9302 148.663 21.2791 148.558 21.6279C148.453 21.9419 148.366 22.186 148.296 22.3605C148.261 22.4651 148.155 22.7791 147.98 23.3023C147.84 23.8256 147.665 24.4709 147.455 25.2384C147.245 25.9709 147.035 26.7558 146.825 27.593C146.649 28.4302 146.492 29.2151 146.352 29.9477C146.247 30.6453 146.194 31.2384 146.194 31.7267C146.194 32.1802 146.299 32.407 146.509 32.407C146.614 32.407 146.684 32.3895 146.719 32.3547C147.07 32.0058 147.472 31.5 147.928 30.8372C148.383 30.1744 148.856 29.4593 149.346 28.6919C149.837 27.8895 150.327 27.0698 150.817 26.2326C151.343 25.3953 151.833 24.6105 152.288 23.8779C152.744 23.1453 153.146 22.5174 153.497 21.9942C153.847 21.4709 154.127 21.1221 154.337 20.9477C154.793 20.5291 155.283 20.3023 155.808 20.2674H155.861H155.913C156.019 20.2674 156.229 20.2674 156.544 20.2674C156.894 20.2674 157.227 20.3198 157.542 20.4244C157.892 20.4942 158.173 20.6337 158.383 20.843C158.593 21.0174 158.645 21.314 158.54 21.7326C158.47 21.9419 158.348 22.4477 158.173 23.25C158.032 24.0174 157.875 24.907 157.7 25.9186C157.525 26.8953 157.367 27.907 157.227 28.9535C157.087 29.9651 157.017 30.8547 157.017 31.6221C157.017 32.3895 157.052 33 157.122 33.4535C157.227 33.8721 157.384 34.0814 157.595 34.0814C157.91 34.0814 158.383 33.7674 159.013 33.1395C159.679 32.4767 160.379 31.6919 161.115 30.7849C161.885 29.843 162.638 28.8663 163.374 27.8547C164.144 26.8081 164.792 25.9012 165.318 25.1337Z" fill="#00112C"/>
<path d="M168.251 36.6453C168.706 37.0988 168.916 37.5 168.881 37.8488C168.881 38.1628 168.776 38.6163 168.566 39.2093C168.636 39.4186 168.566 39.6453 168.356 39.8895C168.181 40.0988 167.97 40.2035 167.725 40.2035C167.375 40.343 166.99 40.4477 166.569 40.5174C166.184 40.5872 165.781 40.6047 165.361 40.5698C164.976 40.5349 164.608 40.4302 164.258 40.2558C163.943 40.0465 163.68 39.75 163.47 39.3663C163.295 38.9128 163.382 38.4419 163.732 37.9535C164.083 37.4651 164.52 37.064 165.046 36.75C165.606 36.4361 166.184 36.2442 166.78 36.1744C167.375 36.1047 167.865 36.2616 168.251 36.6453ZM172.874 4.36047C173.084 5.26744 173.032 6.15698 172.716 7.02907C172.786 7.37791 172.786 7.81395 172.716 8.33721C172.646 8.82558 172.541 9.3314 172.401 9.85465C172.261 10.3779 172.121 10.8837 171.981 11.3721C171.841 11.8256 171.753 12.2093 171.718 12.5233C171.543 13.8837 171.298 15.4884 170.983 17.3372C170.702 19.186 170.387 21 170.037 22.7791C169.722 24.5233 169.406 26.1105 169.091 27.5407C168.776 28.9709 168.513 29.9477 168.303 30.4709C168.128 30.8895 167.97 31.2558 167.83 31.5698C167.725 31.8488 167.62 32.1105 167.515 32.3547C167.445 32.564 167.41 32.686 167.41 32.7209C167.2 32.1977 167.025 31.8837 166.885 31.7791C166.745 31.6744 166.657 32.0058 166.622 32.7733C166.307 32.7035 166.062 32.4942 165.886 32.1453C165.746 31.7616 165.641 31.3256 165.571 30.8372C165.536 30.3488 165.519 29.8256 165.519 29.2674C165.519 28.7093 165.501 28.2035 165.466 27.75C165.431 26.3547 165.449 24.7849 165.519 23.0407C165.624 21.2965 165.781 19.5 165.992 17.6512C166.202 15.8023 166.464 13.936 166.78 12.0523C167.095 10.1686 167.463 8.37209 167.883 6.66279C168.023 6.27907 168.198 5.84302 168.408 5.35465C168.653 4.86628 169.021 4.58721 169.512 4.51744C169.582 4.51744 169.669 4.48256 169.774 4.41279C169.879 4.34302 169.967 4.30814 170.037 4.30814C170.142 4.20349 170.265 4.15116 170.405 4.15116C170.44 4.15116 170.597 4.0814 170.878 3.94186C171.193 3.76744 171.473 3.64535 171.718 3.57558L171.771 3.52326C171.806 3.52326 171.823 3.52326 171.823 3.52326C171.858 3.48837 171.911 3.47093 171.981 3.47093C172.261 3.43605 172.471 3.52326 172.611 3.73256C172.751 3.94186 172.839 4.15116 172.874 4.36047Z" fill="#00112C"/>
</svg>
